<svg xmlns="http://www.w3.org/2000/svg" viewBox="0 0 977 683"><linearGradient id="a" gradientUnits="userSpaceOnUse" x1="596.903" y1="-1106.884" x2="596.903" y2="-1105.884" gradientTransform="matrix(975 0 0 687 -581491 760430)"><stop offset="0" stop-color="#065295"/><stop offset="1" stop-color="#03294b"/></linearGradient><path fill="url(#a)" d="M1.5.5h975v687H1.5V.5z"/><path fill="#E9E5E1" d="M484 5h488v211H484z"/><path fill="#FFF" d="M360.6 381.3h1.4l2.1 6.4c.1.2.1.4.2.6s.1.5.2.7c.1.3.1.5.2.8.1-.3.1-.5.2-.8.1-.2.1-.4.2-.7.1-.2.1-.4.2-.6l2.1-6.4h1.4l-3.4 9.7h-1.5l-3.3-9.7zm9.4 0h1.3v9.7H370v-9.7zm3.4 0h6.9v1.2h-5.6v2.9h5v1.1h-5v3.3h5.7v1.2h-7v-9.7zm12.2 9.8c-.5 0-1-.1-1.5-.2-.4-.1-.8-.3-1.2-.6-.3-.3-.6-.6-.8-1-.2-.5-.3-1-.3-1.5v-6.5h1.3v6.4c-.1.6.2 1.3.6 1.7.5.4 1.2.6 1.8.5.6 0 1.3-.2 1.8-.5.5-.5.7-1.1.6-1.7v-6.4h1.3v6.5c0 .5-.1 1-.3 1.5-.2.4-.5.7-.8 1-.4.3-.8.5-1.2.6-.3.2-.8.2-1.3.2zm8.2-5.1l-3.1-4.7h1.5l1.4 2.3c.1.2.2.3.3.5.1.2.2.4.3.5l.3.6.3-.6c.1-.2.2-.3.3-.5.1-.2.2-.4.3-.5l1.5-2.3h1.5l-3.1 4.7 3.2 5h-1.6l-1.5-2.5c-.1-.2-.2-.3-.3-.5-.1-.2-.2-.4-.3-.5l-.3-.6-.3.6c-.1.2-.2.3-.3.5l-.3.5-1.6 2.5h-1.5l3.3-5zm9.5-4.7h4.1c.5 0 .9.1 1.4.2.4.2.7.4 1 .7.2.3.4.5.5.8s.2.7.2 1.1c0 .8-.2 1.5-.8 2.1-.7.6-1.5.8-2.4.8h-2.6v4h-1.3l-.1-9.7zm1.4 4.6h2.5c.5 0 1.1-.1 1.5-.5.3-.3.5-.8.5-1.3s-.1-1-.5-1.3-.9-.5-1.4-.4h-2.5l-.1 3.5zm11.5 5.3c-.7 0-1.3-.1-2-.4-.6-.2-1.1-.6-1.5-1.1s-.7-1-.9-1.6c-.2-.6-.3-1.3-.3-2s.1-1.4.3-2c.2-.6.5-1.1 1-1.6.4-.5.9-.8 1.5-1.1.6-.3 1.3-.4 2-.4s1.3.1 2 .4c.6.2 1.1.6 1.5 1.1s.7 1 .9 1.6c.2.6.3 1.3.3 2s-.1 1.4-.3 2c-.2.6-.5 1.1-.9 1.6s-.9.8-1.5 1.1c-.7.3-1.4.4-2.1.4zm0-1.2c.5 0 1-.1 1.5-.3.4-.2.8-.5 1.1-.8.3-.4.5-.8.6-1.2.1-.5.2-1 .2-1.5s-.1-1-.2-1.5-.3-.9-.6-1.2c-.3-.3-.7-.6-1.1-.8-.5-.2-1-.3-1.5-.3s-1 .1-1.4.3c-.4.2-.8.5-1.1.8-.3.4-.5.8-.7 1.2-.2.5-.2 1-.2 1.5s.1 1 .2 1.5c.1.4.4.9.7 1.2.3.3.6.6 1.1.8.4.2.9.3 1.4.3zm6.4-8.7h4.5c.4 0 .8.1 1.2.2.3.1.7.3.9.5.3.2.5.5.6.8s.2.7.2 1.1c0 .5-.1 1.1-.4 1.5-.3.5-.8.8-1.4.9.2.1.5.2.7.3.2.1.3.3.4.5s.2.4.3.7c.1.3.1.6.1.9 0 .4.1.7.1 1s.1.5.1.6.1.2.1.4c0 .1.1.1.1.2v.1h-1.4c-.1-.1-.1-.1-.1-.2s-.1-.2-.1-.4 0-.4-.1-.6c0-.3 0-.6-.1-1 0-.5-.2-1-.5-1.4-.4-.3-.9-.5-1.4-.4h-2.6v4h-1.3v-9.7h.1zm1.3 4.6h2.8c.5 0 1.1-.1 1.5-.5.3-.3.5-.8.5-1.3s-.1-.9-.4-1.3c-.4-.3-.9-.5-1.5-.4H424l-.1 3.5zm7-4.6h7.7v1.2h-3.2v8.5h-1.3v-8.5h-3.2v-1.2z"/><path fill="#E9E5E1" d="M3 472h332v220H3z"/><path fill="#95C9F7" stroke="#FFF" stroke-width="2" d="M271.7 207.2c17.3-9.8 42.5-32 41.8-35-.9-4.1-2.1-28.9-2.1-28.9l-45.7 11.3-3.7-23.3 79.6-20.4-6.2-21.6-55.7 12.9-6.9-22.5 98.2-23-2.5-23.2-44.3 9V21.2l84.6-19.6v-19.4l-31.3-21.1 4.9-12.6h153.3L511 22s-83.1 190.4-159.2 193.4c-4.8.2-9.5.3-14.1.3-27.1 0-48.9-3.3-66-8.5z"/><path fill="#065295" d="M336.4 72.3h1.3v8.5h5V82h-6.3v-9.7zm10.5 0h1.5L352 82h-1.5l-1-2.8h-3.8l-1 2.8h-1.4l3.6-9.7zm-.8 5.8h3.1l-.9-2.7c-.1-.2-.2-.5-.2-.7s-.1-.5-.2-.7-.1-.5-.2-.7c-.1.2-.1.5-.2.7s-.1.4-.2.7c-.1.2-.1.5-.2.7l-1 2.7zm12.8 4.1c-.8 0-1.5-.2-2.1-.8-.6-.7-.9-1.5-.8-2.4v-.2h1.3v.2c0 .3 0 .7.1 1 0 .2.2.5.3.7.1.2.3.3.5.3.2.1.5.1.7.1.4 0 .8-.1 1.1-.4.3-.4.4-.8.4-1.3v-7.1h1.3v7.2c0 .4-.1.7-.2 1.1-.1.3-.3.6-.5.8-.2.3-.6.4-.9.6-.3.1-.7.2-1.2.2zm9.1 0c-.7 0-1.3-.1-2-.4-.6-.2-1.1-.6-1.5-1.1s-.7-1-.9-1.6c-.2-.6-.3-1.3-.3-2s.1-1.4.3-2c.2-.6.5-1.1.9-1.6s.9-.8 1.5-1.1c.6-.3 1.3-.4 2-.4s1.3.1 2 .4c.6.2 1.1.6 1.5 1.1s.7 1 .9 1.6c.2.6.3 1.3.3 2s-.1 1.4-.3 2c-.2.6-.5 1.1-.9 1.6s-.9.8-1.5 1.1c-.6.3-1.3.4-2 .4zm0-1.2c.5 0 1-.1 1.4-.3.4-.2.8-.5 1.1-.8.3-.4.5-.8.6-1.2.1-.5.2-1 .2-1.5s-.1-1-.2-1.5-.3-.9-.6-1.2c-.3-.3-.7-.6-1.1-.8-.5-.2-.9-.3-1.4-.3s-1 .1-1.4.3c-.4.2-.8.5-1.1.8-.3.4-.5.8-.6 1.2-.2.5-.2 1-.2 1.5s.1 1 .2 1.5c.1.4.4.9.6 1.2.3.3.6.6 1.1.8.4.2.9.3 1.4.3zm6.4-8.7h1.3v8.5h5V82h-6.3v-9.7zm7.8 0h1.3V82h-1.3v-9.7zm3.3 0h6.9v1.2h-5.6v2.9h5v1.1h-5v3.3h5.7V82h-7v-9.7zm8.1 0h7.7v1.2h-3.2V82h-1.3v-8.5h-3.2v-1.2zm8.7 0h7.7v1.2h-3.2V82h-1.3v-8.5h-3.2v-1.2zm9.1 0h6.9v1.2h-5.6v2.9h5v1.1h-5v3.3h5.7V82h-7v-9.7z"/><path fill="#0091D7" stroke="#FFF" stroke-width="2" d="M1001.7 250.1h0l-26.5-32.6-35.2 14.9H793.6l6.7-84.5c35.5-6.8 188.5-34.7 195-35.9h.1l6.3 138.1h0z"/><path fill="#065295" d="M834.9 192.2c-.6 0-1.2-.1-1.8-.3-.5-.2-.9-.4-1.3-.7-.3-.3-.6-.7-.8-1.1-.2-.4-.3-.9-.3-1.3h1.3c0 .7.3 1.3.8 1.7.6.4 1.3.6 2 .6.3 0 .6 0 .9-.1s.5-.2.7-.3c.2-.1.4-.3.5-.5s.2-.5.2-.8-.1-.5-.2-.8c-.1-.2-.3-.4-.6-.5-.3-.2-.6-.3-.9-.4s-.7-.2-1.2-.3l-1.2-.3c-.4-.1-.7-.3-1-.5s-.5-.5-.7-.8c-.2-.4-.3-.8-.2-1.2 0-.4.1-.8.2-1.1.2-.3.4-.6.7-.8.3-.2.7-.4 1.1-.5s.9-.2 1.4-.2 1 .1 1.5.2c.4.1.8.3 1.1.6.3.2.5.6.7.9.2.4.3.7.3 1.1h-1.3c-.1-.5-.3-1-.7-1.3-.5-.3-1.1-.5-1.6-.5s-1.1.1-1.5.4c-.4.2-.6.7-.6 1.1 0 .2.1.5.2.7s.3.3.5.4c.3.1.5.2.8.3.3.1.6.2 1 .2.5.1.9.2 1.3.3.4.1.8.3 1.1.5.3.2.6.5.8.9.2.4.3.9.3 1.3s-.1.8-.3 1.2c-.2.4-.4.7-.7.9-.3.3-.7.4-1.1.5-.4.4-.9.5-1.4.5zm7.9-9.9h1.5l3.6 9.7h-1.5l-1-2.8h-3.8l-1 2.8h-1.4l3.6-9.7zm-.8 5.8h3.1l-.9-2.7c-.1-.2-.2-.5-.2-.7s-.1-.5-.2-.7-.1-.5-.2-.7c-.1.2-.1.5-.2.7s-.1.4-.2.7c-.1.2-.1.5-.2.7l-1 2.7zm7.1-5.8h1.3v9.7h-1.3v-9.7zm3.4 0h1.4l4 6.1c.1.2.2.4.4.6s.2.4.3.6c.1.2.2.5.4.7l-.1-.7v-7.3h1.2v9.7h-1.4l-4-6.1c-.1-.2-.2-.4-.4-.6s-.2-.4-.4-.6c-.1-.2-.3-.5-.4-.7v8h-1.3l.3-9.7zm9 0h7.7v1.2H866v8.5h-1.3v-8.5h-3.2v-1.2zm7.7 5.5h3.6v1.1h-3.6v-1.1zm9.4 4.4c-.6 0-1.3-.1-1.9-.4-.5-.2-1-.6-1.4-1-.4-.5-.7-1-.9-1.6-.2-.6-.3-1.3-.3-2s.1-1.3.3-2c.2-.6.5-1.1.9-1.6s.9-.8 1.4-1.1c.6-.3 1.3-.4 1.9-.4.5 0 1 .1 1.5.2.4.1.8.4 1.2.6.3.3.6.6.8 1 .2.4.3.8.4 1.3h-1.3c-.1-.6-.4-1.1-.8-1.4-.5-.4-1.1-.6-1.8-.5-.5 0-.9.1-1.4.3-.4.2-.7.5-1 .8-.3.4-.5.8-.6 1.2-.1.5-.2 1-.2 1.5s.1 1.1.2 1.6c.1.4.4.9.6 1.2.3.3.6.6 1 .8.4.2.9.3 1.3.3s.8-.1 1.2-.2c.3-.1.6-.3.8-.6.2-.2.4-.5.5-.8s.2-.6.2-1h1.3c0 .2 0 .5-.1.7s-.1.5-.2.7-.2.5-.4.7c-.1.2-.3.4-.5.6-.5.8-1.6 1.2-2.7 1.1zm5.7-9.9h1.3v4.1h5v-4.1h1.3v9.7h-1.3v-4.5h-5v4.5h-1.3v-9.7zm12.4 0h1.5l3.6 9.7h-1.5l-1-2.8h-3.8l-1 2.8h-1.4l3.6-9.7zm-.8 5.8h3.1l-.9-2.7c-.1-.2-.2-.5-.2-.7s-.1-.5-.2-.7-.1-.5-.2-.7c-.1.2-.1.5-.2.7s-.1.4-.2.7c-.1.2-.1.5-.2.7l-1 2.7zm7.1-5.8h4.5c.4 0 .8.1 1.2.2.3.1.7.3.9.5.3.2.5.5.6.8s.2.7.2 1.1c0 .5-.1 1.1-.4 1.5-.3.5-.8.8-1.4.9.2.1.5.2.7.3.2.1.3.3.4.5s.2.4.3.7c.1.3.1.6.1.9 0 .4.1.7.1 1s.1.5.1.6.1.2.1.4c0 .1.1.1.1.2v.1h-1.4c-.1-.1-.1-.1-.1-.2s-.1-.2-.1-.4 0-.4-.1-.6c0-.3 0-.6-.1-1 0-.5-.2-1-.5-1.4-.4-.3-.9-.5-1.4-.4h-2.6v4h-1.3v-9.7h.1zm1.3 4.6h2.8c.5 0 1.1-.1 1.5-.5.3-.3.5-.8.5-1.3s-.1-.9-.4-1.3c-.4-.3-.9-.5-1.5-.4h-2.8l-.1 3.5zm7.8-4.6h1.3v8.5h5v1.2h-6.3v-9.7zm7.8 0h6.9v1.2h-5.6v2.9h5v1.1h-5v3.3h5.7v1.2h-7v-9.7zm12 9.9c-.6 0-1.2-.1-1.8-.3-.5-.2-.9-.4-1.3-.7-.3-.3-.6-.7-.8-1.1-.2-.4-.3-.9-.3-1.3h1.3c0 .7.3 1.3.8 1.7.6.4 1.3.6 2 .6.3 0 .6 0 .9-.1s.5-.2.7-.3c.2-.1.4-.3.5-.5s.2-.5.2-.8-.1-.5-.2-.8c-.1-.2-.3-.4-.6-.5-.3-.2-.6-.3-.9-.4s-.7-.2-1.2-.3l-1.2-.3c-.4-.1-.7-.3-1-.5s-.5-.5-.7-.8c-.2-.4-.3-.8-.3-1.2 0-.4.1-.8.2-1.1.2-.3.4-.6.7-.8.3-.2.7-.4 1.1-.5s.9-.2 1.4-.2 1 .1 1.5.2c.4.1.8.3 1.1.6.3.2.5.6.7.9.2.4.3.7.3 1.1h-1.3c-.1-.5-.3-1-.7-1.3-.5-.3-1.1-.5-1.6-.5s-1.1.1-1.5.4c-.4.2-.6.7-.6 1.1 0 .2.1.5.2.7s.3.3.5.4c.3.1.5.2.8.3.3.1.6.2 1 .2.5.1.9.2 1.3.3.4.1.8.3 1.1.5.3.2.6.5.8.9.2.4.3.9.3 1.3s-.1.8-.3 1.2c-.2.4-.4.7-.7.9-.3.2-.7.4-1.1.5-.3.4-.8.5-1.3.5z"/><path fill="#3C9BD2" stroke="#FFF" stroke-width="2" d="M807.7 361h0V244h-15.1l.9-11.6H940l35.2-14.9 14 17.2-12.1 97L807.7 361h0z"/><path fill="#065295" d="M857.6 298.2c-.6 0-1.3-.1-1.9-.4-.5-.2-1-.6-1.4-1-.4-.5-.7-1-.9-1.6-.2-.6-.3-1.3-.3-2s.1-1.3.3-2c.2-.6.5-1.1.9-1.6s.9-.8 1.5-1.1c.6-.3 1.3-.4 1.9-.4.5 0 1 .1 1.5.2.4.1.8.4 1.2.6.3.3.6.6.8 1 .2.4.3.8.4 1.3h-1.3c-.1-.6-.4-1.1-.8-1.4-.5-.4-1.1-.6-1.8-.5-.5 0-.9.1-1.4.3-.4.2-.7.5-1 .8-.3.4-.5.8-.6 1.2-.1.5-.2 1-.2 1.5s.1 1.1.2 1.6c.1.4.4.9.6 1.2.3.3.6.6 1 .8.4.2.9.3 1.3.3s.8-.1 1.2-.2c.3-.1.6-.3.8-.6.2-.2.4-.5.5-.8s.2-.6.2-1h1.3c0 .2 0 .5-.1.7s-.1.5-.2.7-.2.5-.4.7c-.1.2-.3.4-.5.6-.7.8-1.8 1.2-2.8 1.1zm5.6-9.9h1.3v4.1h5v-4.1h1.3v9.7h-1.3v-4.5h-5v4.5h-1.3v-9.7zm12.4 0h1.5l3.6 9.7h-1.5l-1-2.8h-3.8l-1 2.8H872l3.6-9.7zm-.8 5.8h3.1l-.9-2.7c-.1-.2-.2-.5-.2-.7-.1-.2-.1-.5-.2-.7s-.1-.5-.2-.7c-.1.2-.1.5-.2.7s-.1.4-.2.7c-.1.2-.1.5-.2.7l-1 2.7zm7.1-5.8h4.1c.5 0 .9.1 1.4.2.4.2.7.4 1 .7.2.3.4.5.5.8s.2.7.2 1.1c0 .8-.2 1.5-.8 2.1-.7.6-1.5.8-2.4.8h-2.6v4H882l-.1-9.7zm1.4 4.6h2.5c.5 0 1.1-.1 1.5-.5.3-.3.5-.8.5-1.3s-.1-1-.5-1.3-.9-.5-1.4-.4h-2.5l-.1 3.5zm7.1-4.6h1.3v9.7h-1.3v-9.7zm2.7 0h7.7v1.2h-3.2v8.5h-1.3v-8.5h-3.2v-1.2zm9.1 0h4.5c.4 0 .8.1 1.2.2.3.1.7.3.9.5.3.2.5.5.6.8s.2.7.2 1.1c0 .5-.1 1.1-.4 1.5-.3.5-.8.8-1.4.9.2.1.5.2.7.3.2.1.3.3.4.5s.2.4.3.7c.1.3.1.6.1.9 0 .4.1.7.1 1s.1.5.1.6.1.2.1.4c0 .1.1.1.1.2v.1h-1.4c-.1-.1-.1-.1-.1-.2s-.1-.2-.1-.4 0-.4-.1-.6c0-.3 0-.6-.1-1 0-.5-.2-1-.5-1.4-.4-.3-.9-.5-1.4-.4h-2.6v4h-1.3l.1-9.7zm1.4 4.6h2.8c.5 0 1.1-.1 1.5-.5.3-.3.5-.8.5-1.3s-.1-.9-.4-1.3c-.4-.3-.9-.5-1.5-.4h-2.8l-.1 3.5zm7.7-4.6h6.9v1.2h-5.6v2.9h5v1.1h-5v3.3h5.7v1.2h-7v-9.7z"/><path fill="#0091D7" stroke="#FFF" stroke-width="2" d="M672.7 557.4h0l-204-4.9-17.2-110.3v-14h66.9c6.5 0 17.6-.1 20.1-1 3.4-1.2 10.1-19.2 10.8-21.3 2.1.7 22.4 1.1 49.4 1.1 25.9 0 51.3-.4 69.7-1.1l4.3 151.5h0z"/><path fill="#065295" d="M515.7 519.2c-.7 0-1.3-.1-2-.4-.6-.2-1.1-.6-1.5-1.1s-.7-1-.9-1.6c-.2-.6-.3-1.3-.3-2s.1-1.4.3-2c.2-.6.5-1.1.9-1.6s.9-.8 1.5-1.1c.6-.3 1.3-.4 2-.4s1.3.1 2 .4c.6.2 1.1.6 1.5 1.1s.7 1 .9 1.6c.2.6.3 1.3.3 2s-.1 1.4-.3 2c-.2.6-.5 1.1-.9 1.6s-.9.8-1.5 1.1c-.6.3-1.3.4-2 .4zm0-1.2c.5 0 1-.1 1.4-.3.4-.2.8-.5 1.1-.8.3-.4.5-.8.6-1.2.1-.5.2-1 .2-1.5s-.1-1-.2-1.5-.3-.9-.6-1.2c-.3-.3-.7-.6-1.1-.8-.5-.2-.9-.3-1.4-.3s-1 .1-1.5.3c-.4.2-.8.5-1.1.8-.3.4-.5.8-.7 1.2-.2.5-.2 1-.2 1.5s.1 1 .2 1.5c.1.4.4.9.7 1.2.3.3.6.6 1.1.8.6.2 1 .3 1.5.3zm6.4-8.7h4.1c.5 0 .9.1 1.4.2.4.2.7.4 1 .7.2.3.4.5.5.8s.2.7.2 1.1c0 .8-.2 1.5-.8 2.1-.7.6-1.5.8-2.4.8h-2.6v4h-1.3l-.1-9.7zm1.4 4.6h2.5c.5 0 1.1-.1 1.5-.5.3-.3.5-.8.5-1.3s-.1-1-.5-1.3-.9-.5-1.4-.4h-2.5l-.1 3.5zm7-4.6h6.9v1.2h-5.6v2.9h5v1.1h-5v3.3h5.7v1.2h-7v-9.7zm3.7-2.1h1.5l-1.2 1.6h-1l.7-1.6zm5 2.1h4.5c.4 0 .8.1 1.2.2.3.1.7.3.9.5.3.2.5.5.6.8s.2.7.2 1.1c0 .5-.1 1.1-.4 1.5-.3.5-.8.8-1.4.9.2.1.5.2.7.3.2.1.3.3.4.5s.2.4.3.7c.1.3.1.6.1.9 0 .4.1.7.1 1s.1.5.1.6.1.2.1.4c0 .1.1.1.1.2v.1h-1.4c-.1-.1-.1-.1-.1-.2s-.1-.2-.1-.4 0-.4-.1-.6c0-.3 0-.6-.1-1 0-.5-.2-1-.5-1.4-.4-.3-.9-.5-1.4-.4h-2.6v4h-1.3v-9.7h.1zm1.3 4.6h2.8c.5 0 1.1-.1 1.5-.5.3-.3.5-.8.5-1.3s-.1-.9-.4-1.3c-.4-.3-.9-.5-1.5-.4h-2.8l-.1 3.5zm10.6-4.6h1.5l3.6 9.7h-1.5l-1-2.8h-3.8l-1 2.8h-1.4l3.6-9.7zm-.9 5.8h3.1l-.9-2.7c-.1-.2-.2-.5-.2-.7s-.1-.5-.2-.7-.1-.5-.2-.7c-.1.2-.1.5-.2.7s-.1.4-.2.7c-.1.2-.1.5-.2.7l-1 2.7z"/><path fill="#3C9BD2" stroke="#FFF" stroke-width="2" d="M550.6 395.3h0-.2c.1-.4.2-.9.3-1.5 0 .4-.1.8-.1 1.2v.3h0zm1.9-13.8h0c.5-9.1-1.3-15.2-5.5-18.3-2.9-2-5.4-4.6-7.5-7.5-1.9-2.6-2.7-3.7-10-3.7-1.8 0-4.1.1-7.2.2-1.4.1-2.8.1-4.2.1-11.5-.2-22.9-1.6-34.1-4.2-11.4-2.6-21.7-6.1-28.4-9.5-2.9-1.5-4.8-2.6-6.4-3.5h0c-5.4-3.2-5.4-3.2-19.6-3.6h-.1c-2.1-.1-4.6-.1-7.4-.3l-7.2-.3c-34.7-1.2-116.1-4.2-127.7-7-3.7-.8-7.4-1.4-11.2-1.5h-.6l3.8-.9h0c.8-2.5 1.7-4.8 2.9-7.2 2.8-5.9 6.4-11.4 10.5-16.4 5.9-7.1 13-13.2 20.9-17.9 10.5-6.1 22.1-10.1 34.2-11.7 17.4-2.5 34.9-3.6 52.4-3.6 34.8 0 73.5 4.2 115.1 12.4 16.1 3.2 26.2 3.6 33.1 3.6 2 0 3.9 0 5.8-.1h.4c1.6 0 3.2-.1 4.7-.1 5.2-.1 10.3.7 15.1 2.5 6 2.2 13.1 6 23.1 12.6 2.9 2 5.3 6.2 7.3 12.3 2.1 6.9 3.4 14 4 21.2.8 8.6 1 17.2.7 25.8-.3 8.7-1.2 17.4-2.7 26l-54.2.6z"/><path fill="#065295" d="M475.4 316.3h1.3v4.1h5v-4.1h1.3v9.7h-1.3v-4.5h-5v4.5h-1.3v-9.7zm14 9.9c-.7 0-1.3-.1-2-.4-.6-.2-1.1-.6-1.5-1.1s-.7-1-.9-1.6c-.2-.6-.3-1.3-.3-2s.1-1.4.3-2c.2-.6.5-1.1.9-1.6s.9-.8 1.5-1.1c.6-.3 1.3-.4 2-.4s1.3.1 2 .4c.6.2 1.1.6 1.5 1.1s.7 1 .9 1.6c.2.6.3 1.3.3 2s-.1 1.4-.3 2c-.2.6-.5 1.1-.9 1.6s-.9.8-1.5 1.1c-.6.3-1.3.4-2 .4zm0-1.2c.5 0 1-.1 1.5-.3.4-.2.8-.5 1.1-.8.3-.4.5-.8.6-1.2.1-.5.2-1 .2-1.5s-.1-1-.2-1.5-.3-.9-.6-1.2c-.3-.3-.6-.6-1.1-.8-.5-.2-1-.3-1.4-.3-.5 0-1 .1-1.5.3-.4.2-.8.5-1.1.8-.3.4-.5.8-.7 1.2-.2.5-.2 1-.2 1.5s.1 1 .2 1.5c.1.4.4.9.7 1.2.3.3.6.6 1.1.8.4.2.9.3 1.4.3zm-.6-10.7h1.3l1.3 1.5h-1.2l-.7-.8-.7.8h-1.2l1.2-1.5zm5.8 2h7.7v1.2h-3.2v8.5h-1.3v-8.5h-3.2v-1.2zm9.1 0h6.9v1.2H505v2.9h5v1.1h-5v3.3h5.7v1.2h-7v-9.7zm8.6 0h1.3v8.5h5v1.2h-6.3v-9.7zm11.2 0h3.6c.6 0 1.3.1 1.9.4.5.2 1 .6 1.4 1 .4.5.6 1 .8 1.5.2.6.3 1.3.3 2s-.1 1.3-.3 2c-.2.6-.5 1.1-.8 1.5-.4.4-.9.8-1.4 1-.6.2-1.3.4-1.9.3h-3.5l-.1-9.7zm3.5 8.5c.5 0 1-.1 1.4-.3.4-.2.7-.4 1-.7.3-.3.4-.7.5-1.1.1-.5.2-1 .2-1.5s0-1-.2-1.5c-.1-.4-.3-.8-.5-1.2-.2-.3-.6-.6-.9-.8-.4-.2-.9-.3-1.4-.3h-2.2v7.4h2.1zm6.1-8.5h6.9v1.2h-5.6v2.9h5v1.1h-5v3.3h5.7v1.2h-7v-9.7zm11.3 0h1.4l2.1 6.4c.1.2.1.4.2.6s.1.5.2.7c.1.3.1.5.2.8.1-.3.1-.5.2-.8.1-.2.1-.4.2-.7.1-.2.1-.4.2-.6l2.1-6.4h1.4l-3.4 9.7h-1.5l-3.3-9.7zm9.4 0h1.3v9.7h-1.3v-9.7zm3.4 0h1.3v8.5h5v1.2h-6.3v-9.7zm7.7 0h1.3v8.5h5v1.2h-6.3v-9.7zm7.8 0h6.9v1.2H574v2.9h5v1.1h-5v3.3h5.7v1.2h-7v-9.7z"/><path fill="#3C9BD2" stroke="#FFF" stroke-width="2" d="M662.1 718.4h-209l.3-4.3h2c0-2.9 2-5.4 6.2-7.7 3.6-1.9 6.6-5.7 8.9-11.1 2.5-6.1 4.1-12.6 4.9-19.2 1.9-13.1 2.3-30.2 1.2-50.7-1-18.3-3-36-4.5-47.7s-2.8-19.6-3-21.1h0c0-.4-.1-1.8-.3-4.1l176.3 4.2 17 161.7h0z"/><path fill="#065295" d="M499.4 626.3h4.1c.5 0 .9.1 1.4.2.4.2.7.4 1 .7.2.3.4.5.5.8s.2.7.2 1.1c0 .8-.2 1.5-.8 2.1-.7.6-1.5.8-2.4.8h-2.6v4h-1.3l-.1-9.7zm1.3 4.6h2.5c.5 0 1.1-.1 1.5-.5.3-.3.5-.8.5-1.3s-.1-1-.5-1.3-.9-.5-1.4-.4h-2.5l-.1 3.5zm9.2-4.6h1.5l3.6 9.7h-1.5l-1-2.8h-3.8l-1 2.8h-1.4l3.6-9.7zm-.9 5.8h3.1l-.9-2.7c-.1-.2-.2-.5-.2-.7s-.1-.5-.2-.7-.1-.5-.2-.7c-.1.2-.1.5-.2.7s-.1.4-.2.7c-.1.2-.1.5-.2.7l-1 2.7zm7.1-5.8h1.3v8.5h5v1.2h-6.3v-9.7zm10.6 0h1.5l3.6 9.7h-1.5l-1-2.8h-3.8l-1 2.8h-1.4l3.6-9.7zm-.9 5.8h3.1l-.9-2.7c-.1-.2-.2-.5-.2-.7s-.1-.5-.2-.7-.1-.5-.2-.7c-.1.2-.1.5-.2.7s-.1.4-.2.7c-.1.2-.1.5-.2.7l-1 2.7zm7.2-5.8h1.3v9.7H533v-9.7zm6.9 9.9c-.6 0-1.2-.1-1.8-.3-.5-.2-.9-.4-1.3-.7-.3-.3-.6-.7-.8-1.1-.2-.4-.3-.9-.3-1.3h1.3c0 .7.3 1.3.8 1.7.6.4 1.3.6 2 .6.3 0 .6 0 .9-.1s.5-.2.7-.3c.2-.1.4-.3.5-.5s.2-.5.2-.8-.1-.5-.2-.8c-.1-.2-.3-.4-.6-.5-.3-.2-.6-.3-.9-.4s-.7-.2-1.2-.3l-1.2-.3c-.4-.1-.7-.3-1-.5s-.5-.5-.7-.8c-.2-.4-.3-.8-.3-1.2 0-.4.1-.8.2-1.1.2-.3.4-.6.7-.8.3-.2.7-.4 1.1-.5s.9-.2 1.4-.2 1 .1 1.5.2c.4.1.8.3 1.1.6.3.2.5.6.7.9.2.4.3.7.3 1.1h-1.3c-.1-.5-.3-1-.7-1.3-.5-.3-1.1-.5-1.6-.5s-1.1.1-1.5.4c-.4.2-.6.7-.6 1.1 0 .2.1.5.2.7s.3.3.5.4c.3.1.5.2.8.3.3.1.6.2 1 .2.5.1.9.2 1.3.3.4.1.8.3 1.1.5.3.2.6.5.8.9.2.4.3.9.3 1.3s-.1.8-.3 1.2c-.2.4-.4.7-.7.9-.3.3-.7.4-1.1.6-.3.3-.8.4-1.3.4zm8.6-9.9h3.6c.6 0 1.3.1 1.9.4.5.2 1 .6 1.4 1 .4.5.6 1 .8 1.5.2.6.3 1.3.3 2s-.1 1.3-.3 2c-.2.6-.5 1.1-.8 1.5-.4.4-.9.8-1.4 1-.6.2-1.3.4-1.9.3h-3.5l-.1-9.7zm3.5 8.5c.5 0 1-.1 1.4-.3.4-.2.7-.4 1-.7.3-.3.4-.7.5-1.2s.2-1 .2-1.5-.1-1-.2-1.5c-.1-.4-.3-.8-.5-1.2-.2-.3-.6-.6-.9-.8-.4-.2-.9-.3-1.4-.3h-2.2v7.4l2.1.1zm6-8.5h6.9v1.2h-5.5v2.9h5v1.1h-5v3.3h5.7v1.2h-7l-.1-9.7zm14.5 9.9c-.8 0-1.5-.2-2.1-.8-.6-.7-.9-1.5-.8-2.4v-.2h1.3v.2c0 .3 0 .7.1 1 0 .2.2.5.3.7.1.2.3.3.5.3.2.1.5.1.7.1.4 0 .8-.1 1.1-.4.3-.4.4-.8.4-1.3v-7.1h1.3v7.2c0 .4-.1.7-.2 1.1-.1.3-.3.6-.5.8-.2.3-.6.4-.9.6-.4.1-.8.2-1.2.2zm8.2-.1c-.5 0-1-.1-1.5-.2-.4-.1-.8-.3-1.2-.6-.3-.3-.6-.6-.8-1-.2-.5-.3-1-.3-1.5v-6.5h1.3v6.4c-.1.6.2 1.3.6 1.7.5.4 1.2.6 1.8.5.6 0 1.3-.2 1.8-.5.5-.5.7-1.1.6-1.7v-6.4h1.3v6.5c0 .5-.1 1-.3 1.5-.2.4-.4.7-.8 1s-.8.5-1.2.6c-.3.2-.8.2-1.3.2zm9.3.1c-.6 0-1.2-.1-1.8-.3-.5-.2-.9-.4-1.3-.7-.3-.3-.6-.7-.8-1.1-.2-.4-.3-.9-.3-1.3h1.3c0 .7.3 1.3.8 1.7.6.4 1.3.6 2 .6.3 0 .6 0 .9-.1s.5-.2.7-.3c.2-.1.4-.3.5-.5s.2-.5.2-.8-.1-.5-.2-.8c-.1-.2-.3-.4-.6-.5-.3-.2-.6-.3-.9-.4s-.7-.2-1.2-.3l-1.2-.3c-.4-.1-.7-.3-1-.5s-.5-.5-.7-.8c-.2-.4-.3-.8-.3-1.2 0-.4.1-.8.2-1.1.2-.3.4-.6.7-.8.3-.2.7-.4 1.1-.5s.9-.2 1.4-.2 1 .1 1.5.2c.4.1.8.3 1.1.6.3.2.5.6.7.9.2.4.3.7.3 1.1h-1.3c-.1-.5-.3-1-.7-1.3-.5-.3-1.1-.5-1.6-.5s-1.1.1-1.5.4c-.4.2-.6.7-.6 1.1 0 .2.1.5.2.7s.3.3.5.4c.3.1.5.2.8.3.3.1.6.2 1 .2.5.1.9.2 1.3.3.4.1.8.3 1.1.5.3.2.6.5.8.9.2.4.3.9.3 1.3s-.1.8-.3 1.2c-.2.4-.4.7-.7.9-.3.3-.7.4-1.1.6-.3.3-.8.4-1.3.4zm4.1-9.9h7.7v1.2h-3.2v8.5h-1.3v-8.5h-3.2v-1.2zm9.2 0h1.3v9.7h-1.3v-9.7zm7.5 9.9c-.6 0-1.3-.1-1.9-.4-.5-.2-1-.6-1.4-1-.4-.5-.7-1-.9-1.6-.2-.6-.3-1.3-.3-2s.1-1.3.3-2c.2-.6.5-1.1.9-1.6s.9-.8 1.4-1.1c.6-.3 1.3-.4 1.9-.4.5 0 1 .1 1.5.2.4.1.8.4 1.2.6.3.3.6.6.8 1 .2.4.3.8.4 1.3h-1.3c-.1-.6-.4-1.1-.8-1.4-.5-.4-1.1-.6-1.8-.5-.5 0-.9.1-1.4.3-.4.2-.7.5-1 .8-.3.4-.5.8-.6 1.2-.1.5-.2 1-.2 1.5s.1 1.1.2 1.6c.1.4.4.9.6 1.2.3.3.6.6 1 .8.4.2.9.3 1.3.3s.8-.1 1.2-.2c.3-.1.6-.3.8-.6.2-.2.4-.5.5-.8s.2-.6.2-1h1.3c0 .2 0 .5-.1.7s-.1.5-.2.7-.2.5-.4.7c-.1.2-.3.4-.5.6-.6.8-1.6 1.2-2.7 1.1zm5.6-9.9h6.9v1.2h-5.6v2.9h5v1.1h-5v3.3h5.7v1.2h-7v-9.7z"/><path fill="#95C9F7" stroke="#FFF" stroke-width="2" d="M840.5 718.4H662.1l-17-161.7 23.9.6v.2l155 4.6 16.5 156.3h0z"/><path fill="#065295" d="M699.4 626.3h4.1c.5 0 .9.1 1.4.2.4.2.7.4 1 .7.2.3.4.5.5.8s.2.7.2 1.1c0 .8-.2 1.5-.8 2.1-.7.6-1.5.8-2.4.8h-2.6v4h-1.3l-.1-9.7zm1.3 4.6h2.5c.5 0 1.1-.1 1.5-.5.3-.3.5-.8.5-1.3s-.1-1-.5-1.3-.9-.5-1.4-.4h-2.5l-.1 3.5zm7.1-4.6h4.5c.4 0 .8.1 1.2.2.3.1.7.3.9.5.3.2.5.5.6.8s.2.7.2 1.1c0 .5-.1 1.1-.4 1.5-.3.5-.8.8-1.4.9.2.1.5.2.7.3.2.1.3.3.4.5s.2.4.3.7c.1.3.1.6.1.9 0 .4.1.7.1 1s.1.5.1.6.1.2.1.4c0 .1.1.1.1.2v.1h-1.4c-.1-.1-.1-.1-.1-.2s-.1-.2-.1-.4 0-.4-.1-.6c0-.3 0-.6-.1-1 0-.5-.2-1-.5-1.4-.4-.3-.9-.5-1.4-.4H709v4h-1.3v-9.7h.1zm1.3 4.6h2.8c.5 0 1.1-.1 1.5-.5.3-.3.5-.8.5-1.3s-.1-.9-.4-1.3c-.4-.3-.9-.5-1.5-.4h-2.8l-.1 3.5zm7.8-4.6h6.9v1.2h-5.6v2.9h5v1.1h-5v3.3h5.7v1.2h-7v-9.7zm3.7-2.1h1.5l-1.2 1.6h-1l.7-1.6zm4.9 2.1h6.6v1.2h-5.3v2.9h4.4v1.1h-4.4v4.5h-1.3v-9.7zm8.1 0h6.9v1.2h-5.6v2.9h5v1.1h-5v3.3h5.7v1.2h-7v-9.7zm12.7 9.9c-.6 0-1.3-.1-1.9-.4-.5-.2-1-.6-1.4-1.1s-.7-1-.9-1.6c-.2-.6-.3-1.3-.3-2s.1-1.3.3-2c.2-.6.5-1.1.9-1.6s.9-.8 1.4-1.1c.6-.3 1.3-.4 1.9-.4.5 0 1 .1 1.5.2.4.1.8.4 1.2.6.3.3.6.6.8 1 .2.4.3.8.4 1.3h-1.3c-.1-.6-.4-1.1-.8-1.4-.5-.4-1.1-.6-1.8-.5-.5 0-.9.1-1.4.3-.4.2-.7.5-1 .8-.3.4-.5.8-.6 1.2-.1.5-.2 1-.2 1.5s.1 1.1.2 1.6c.1.4.4.9.6 1.2.3.3.6.6 1 .8.4.2.9.3 1.3.3s.8-.1 1.2-.2c.3-.1.6-.3.8-.6.2-.2.4-.5.5-.8s.2-.6.2-1h1.3c0 .2 0 .5-.1.7s-.1.5-.2.7-.2.5-.4.7c-.1.2-.3.4-.5.6-.6.9-1.6 1.3-2.7 1.2zm4.7-9.9h7.7v1.2h-3.2v8.5h-1.3v-8.5H751v-1.2zm12.7 9.8c-.5 0-1-.1-1.5-.2-.4-.1-.8-.3-1.2-.6-.3-.3-.6-.6-.8-1-.2-.5-.3-1-.3-1.5v-6.5h1.3v6.4c-.1.6.2 1.3.6 1.7.5.4 1.2.6 1.8.5.6 0 1.3-.2 1.8-.5.5-.5.7-1.1.6-1.7v-6.4h1.3v6.5c0 .5-.1 1-.3 1.5-.2.4-.4.7-.8 1s-.8.5-1.2.6c-.3.2-.8.2-1.3.2zm5.6-9.8h4.5c.4 0 .8.1 1.2.2.3.1.7.3.9.5.3.2.5.5.6.8s.2.7.2 1.1c0 .5-.1 1.1-.4 1.5-.3.5-.8.8-1.4.9.2.1.5.2.7.3.2.1.3.3.4.5s.2.4.3.7c.1.3.1.6.1.9 0 .4.1.7.1 1s.1.5.1.6.1.2.1.4c0 .1.1.1.1.2v.1h-1.4c-.1-.1-.1-.1-.1-.2s-.1-.2-.1-.4 0-.4-.1-.6c0-.3 0-.6-.1-1 0-.5-.2-1-.5-1.4-.4-.3-.9-.5-1.4-.4h-2.6v4h-1.3l.1-9.7zm1.3 4.6h2.8c.5 0 1.1-.1 1.5-.5.3-.3.5-.8.5-1.3s-.1-.9-.4-1.3c-.4-.3-.9-.5-1.5-.4h-2.8l-.1 3.5zm7.8-4.6h6.9v1.2h-5.6v2.9h5v1.1h-5v3.3h5.7v1.2h-7v-9.7z"/><path fill="#46ADDA" stroke="#FFF" stroke-width="2" d="M829.5 562.2h0L669 557.4v-.2l3.7.1-4.2-151.4c15.2-.6 25.3-1.4 30.2-2.3 6.3-1.2 43.7-7.7 111.1-19.2l19.7 177.8z"/><path fill="#065295" d="M712.4 475.3h1.4l4 6.1c.1.2.2.4.4.6s.2.4.3.6c.1.2.2.5.4.7l-.1-.7v-7.3h1.2v9.7h-1.4l-4-6.1c-.1-.2-.2-.4-.4-.6-.1-.2-.2-.4-.4-.6-.1-.2-.3-.5-.4-.7v8h-1.2v-9.7h.2zm14 9.9c-.7 0-1.3-.1-2-.4-.6-.2-1.1-.6-1.5-1.1s-.7-1-.9-1.6c-.2-.6-.3-1.3-.3-2s.1-1.4.3-2c.2-.6.5-1.1.9-1.6s.9-.8 1.5-1.1c.6-.3 1.3-.4 2-.4s1.3.1 2 .4c.6.2 1.1.6 1.5 1.1s.7 1 .9 1.6c.2.6.3 1.3.3 2s-.1 1.4-.3 2c-.2.6-.5 1.1-.9 1.6s-.9.8-1.5 1.1c-.7.3-1.3.4-2 .4zm0-1.2c.5 0 1-.1 1.4-.3.4-.2.8-.5 1.1-.8.3-.4.5-.8.6-1.2.1-.5.2-1 .2-1.5s-.1-1-.2-1.5-.3-.9-.6-1.2c-.3-.3-.7-.6-1.1-.8-.5-.2-1-.3-1.5-.3s-1 .1-1.4.3c-.4.2-.8.5-1.1.8-.3.4-.5.8-.7 1.2-.2.5-.2 1-.2 1.5s.1 1 .2 1.5c.1.4.4.9.7 1.2.3.3.6.6 1.1.8s1 .3 1.5.3zm8.7-8.7h1.5l3.6 9.7h-1.5l-1-2.8h-3.8l-1 2.8h-1.4l3.6-9.7zm-.8 5.8h3.1l-.9-2.7c-.1-.2-.2-.5-.2-.7s-.1-.5-.2-.7-.1-.5-.2-.7c-.1.2-.1.5-.2.7s-.1.4-.2.7c-.1.2-.1.5-.2.7l-1 2.7zm7.1-5.8h1.3v9.7h-1.3v-9.7zm3.3 0h1.3v8.5h5v1.2h-6.3v-9.7zm7.8 0h1.3v8.5h5v1.2h-6.3v-9.7zm7.7 0h6.9v1.2h-5.6v2.9h5v1.1h-5v3.3h5.7v1.2h-7v-9.7zm12.1 9.9c-.6 0-1.2-.1-1.8-.3-.5-.2-.9-.4-1.3-.7-.3-.3-.6-.7-.8-1.1-.2-.4-.3-.9-.3-1.3h1.3c0 .7.3 1.3.8 1.7.6.4 1.3.6 2 .6.3 0 .6 0 .9-.1s.5-.2.7-.3c.2-.1.4-.3.5-.5s.2-.5.2-.8-.1-.5-.2-.8c-.1-.2-.3-.4-.6-.5-.3-.2-.6-.3-.9-.4s-.7-.2-1.1-.3l-1.2-.3c-.4-.1-.7-.3-1-.5s-.5-.5-.7-.8c-.2-.4-.3-.8-.3-1.2 0-.4.1-.8.2-1.1.2-.3.4-.6.7-.8.3-.2.7-.4 1.1-.5s.9-.2 1.4-.2 1 .1 1.5.2c.4.1.8.3 1.1.6.3.2.5.6.7.9.2.4.3.7.3 1.1h-1.3c-.1-.5-.3-1-.7-1.3-.5-.3-1.1-.5-1.6-.5s-1.1.1-1.5.4c-.4.2-.6.7-.6 1.1 0 .2.1.5.2.7s.3.3.5.4c.3.1.5.2.8.3.3.1.6.2 1 .2.5.1.9.2 1.3.3.4.1.8.3 1.1.5.3.2.6.5.8.9.2.4.3.9.3 1.3s-.1.8-.3 1.2c-.2.4-.4.7-.7.9-.3.3-.7.4-1.1.6-.4.3-.9.4-1.4.4z"/><path fill="#0091D7" stroke="#FFF" stroke-width="2" d="M909.3 532.6h0l-89.5-57.8-10-90.4c56.7-9.7 122.9-21 168.5-28.7v102.1l-69 74.8h0z"/><path fill="#065295" d="M865.8 440.3h7.7v1.2h-3.2v8.5H869v-8.5h-3.2v-1.2zm9.1 0h1.3v4.1h5v-4.1h1.3v9.7h-1.3v-4.5h-5v4.5h-1.3v-9.7zm9.7 0h1.3v9.7h-1.3v-9.7zm3.3 0h6.9v1.2h-5.5v2.9h5v1.1h-5v3.3h5.7v1.2h-7l-.1-9.7zm8.7 0h4.5c.4 0 .8.1 1.2.2.3.1.7.3.9.5.3.2.5.5.6.8s.2.7.2 1.1c0 .5-.1 1.1-.4 1.5-.3.5-.8.8-1.4.9.2.1.5.2.7.3.2.1.3.3.4.5s.2.4.3.7c.1.3.1.6.1.9 0 .4.1.7.1 1s.1.5.1.6.1.2.1.4c0 .1.1.1.1.2v.1h-1.4c-.1-.1-.1-.1-.1-.2s-.1-.2-.1-.4 0-.4-.1-.6c0-.3 0-.6-.1-1 0-.5-.2-1-.5-1.4-.4-.3-.9-.5-1.4-.4h-2.6v4h-1.3l.1-9.7zm1.3 4.6h2.8c.5 0 1.1-.1 1.5-.5.3-.3.5-.8.5-1.3s-.1-.9-.4-1.3c-.4-.3-.9-.5-1.5-.4H898l-.1 3.5zm11.3 5.3c-.6 0-1.2-.1-1.8-.3-.5-.2-.9-.4-1.3-.7-.3-.3-.6-.7-.8-1.1-.2-.4-.3-.9-.3-1.3h1.3c0 .7.3 1.3.8 1.7.6.4 1.3.6 2 .6.3 0 .6 0 .9-.1s.5-.2.7-.3c.2-.1.4-.3.5-.5s.2-.5.2-.8-.1-.5-.2-.8c-.1-.2-.3-.4-.6-.5-.3-.2-.6-.3-.9-.4s-.7-.2-1.2-.3l-1.2-.3c-.4-.1-.7-.3-1-.5s-.5-.5-.7-.8c-.2-.4-.3-.8-.3-1.2 0-.4.1-.8.2-1.1.2-.3.4-.6.7-.8.3-.2.7-.4 1.1-.5s.9-.2 1.4-.2 1 .1 1.5.2c.4.1.8.3 1.1.6.3.2.5.6.7.9.2.4.3.7.3 1.1H911c-.1-.5-.3-1-.7-1.3-.5-.3-1.1-.5-1.6-.5s-1.1.1-1.5.4c-.4.2-.6.7-.6 1.1 0 .2.1.5.2.7s.3.3.5.4c.3.1.5.2.8.3.3.1.6.2 1 .2.5.1.9.2 1.3.3.4.1.8.3 1.1.5.3.2.6.5.8.9.2.4.3.9.3 1.3s-.1.8-.3 1.2c-.2.4-.4.7-.7.9-.3.3-.7.4-1.1.6-.3.3-.8.4-1.3.4z"/><path fill="#3C9BD2" stroke="#FFF" stroke-width="2" d="M975.3 686.5H837.1L824 562.1l5.4.2-9.7-87.5 89.5 57.8 69-74.8-2.9 228.7h0z"/><path fill="#065295" d="M854.8 584.3h1.4l4 6.1c.1.2.2.4.4.6s.2.4.3.6c.1.2.2.5.4.7l-.1-.7v-7.3h1.2v9.7H861l-4-6.1c-.1-.2-.2-.4-.4-.6s-.2-.4-.4-.6c-.1-.2-.3-.5-.4-.7v8h-1.2l.2-9.7zm14 9.9c-.7 0-1.3-.1-2-.4-.6-.2-1.1-.6-1.5-1.1s-.7-1-.9-1.6c-.2-.6-.3-1.3-.3-2s.1-1.4.3-2c.2-.6.5-1.1.9-1.6s.9-.8 1.5-1.1c.6-.3 1.3-.4 2-.4s1.3.1 2 .4c.6.2 1.1.6 1.5 1.1s.7 1 .9 1.6c.2.6.3 1.3.3 2s-.1 1.4-.3 2c-.2.6-.5 1.1-.9 1.6s-.9.8-1.5 1.1c-.7.3-1.3.4-2 .4zm0-1.2c.5 0 1-.1 1.5-.3.4-.2.8-.5 1.1-.8.3-.4.5-.8.6-1.2.1-.5.2-1 .2-1.5s-.1-1-.2-1.5-.3-.9-.6-1.2c-.3-.3-.6-.6-1.1-.8-.5-.2-1-.3-1.4-.3-.5 0-1 .1-1.4.3-.4.2-.8.5-1.1.8-.3.4-.5.8-.7 1.2-.2.5-.2 1-.2 1.5s.1 1 .2 1.5c.1.4.4.9.7 1.2.3.3.6.6 1.1.8.3.2.8.3 1.3.3zm5.2-8.7h7.7v1.2h-3.2v8.5h-1.3v-8.5H874v-1.2zm9.1 0h4.5c.4 0 .8.1 1.2.2.3.1.7.3.9.5.3.2.5.5.6.8s.2.7.2 1.1c0 .5-.1 1.1-.4 1.5-.3.5-.8.8-1.4.9.2.1.5.2.7.3.2.1.3.3.4.5s.2.4.3.7c.1.3.1.6.1.9 0 .4.1.7.1 1s.1.5.1.6.1.2.1.4c0 .1.1.1.1.2v.1h-1.4c-.1-.1-.1-.1-.1-.2s-.1-.2-.1-.4 0-.4-.1-.6c0-.3 0-.6-.1-1 0-.5-.2-1-.5-1.4-.4-.3-.9-.5-1.4-.4h-2.6v4H883l.1-9.7zm1.3 4.6h2.8c.5 0 1.1-.1 1.5-.5.3-.3.5-.8.5-1.3s-.1-.9-.4-1.3c-.4-.3-.9-.5-1.5-.4h-2.8l-.1 3.5zm7.8-4.6h6.9v1.2h-5.6v2.9h5v1.1h-5v3.3h5.7v1.2h-7v-9.7zm8.3 5.4h3.6v1.1h-3.6v-1.1zm5.2-5.4h3.6c.6 0 1.3.1 1.9.4.5.2 1 .6 1.4 1 .4.5.6 1 .8 1.5.2.6.3 1.3.3 2s-.1 1.3-.3 2c-.2.6-.5 1.1-.8 1.5-.4.4-.9.8-1.4 1-.6.2-1.3.4-1.9.3h-3.5l-.1-9.7zm3.4 8.5c.5 0 1-.1 1.4-.3.4-.2.7-.4 1-.7.3-.3.4-.7.5-1.2s.2-1 .2-1.5 0-1-.2-1.5c-.1-.4-.3-.8-.5-1.2-.2-.3-.6-.6-.9-.8-.4-.2-.9-.3-1.4-.3H907v7.4l2.1.1zm8.5-8.5h1.5l3.6 9.7h-1.5l-1-2.8h-3.8l-1 2.8H914l3.6-9.7zm-.9 5.8h3.1l-.9-2.7c-.1-.2-.2-.5-.2-.7s-.1-.5-.2-.7-.1-.5-.2-.7c-.1.2-.1.5-.2.7s-.1.4-.2.7c-.1.2-.1.5-.2.7l-1 2.7zm7.1-5.8h1.7l2 5.3.3.9c.1.3.2.7.3 1 .1.4.2.7.3 1.1.1-.4.2-.8.4-1.1.1-.3.2-.6.3-1 .1-.3.2-.7.3-.9l2-5.3h1.8v9.7h-1.3v-8.2l-.2.8c-.1.2-.1.5-.2.7-.1.3-.2.5-.2.7l-2.4 6.1h-1l-2.4-6.1c-.1-.2-.1-.4-.2-.7s-.2-.5-.2-.7l-.2-.8v8.2h-1.2l.1-9.7zm11.5 0h6.9v1.2h-5.6v2.9h5v1.1h-5v3.3h5.7v1.2h-7v-9.7zm-67.1 16h3.6c.6 0 1.3.1 1.9.4.5.2 1 .6 1.4 1 .4.5.6 1 .8 1.5.2.6.3 1.3.3 2s-.1 1.3-.3 2c-.2.6-.5 1.1-.8 1.5-.4.4-.9.8-1.4 1-.6.2-1.3.4-1.9.3h-3.5l-.1-9.7zm3.4 8.5c.5 0 1-.1 1.4-.3.4-.2.7-.4 1-.7.3-.3.4-.7.5-1.2s.2-1 .2-1.5 0-1-.2-1.5c-.1-.4-.3-.8-.5-1.2-.2-.3-.6-.6-.9-.8-.4-.2-.9-.3-1.4-.3h-2.2v7.4l2.1.1zm9.6 1.3c-.5 0-1-.1-1.5-.2-.4-.1-.8-.3-1.2-.6-.3-.3-.6-.6-.8-1-.2-.5-.3-1-.3-1.5v-6.5h1.3v6.4c-.1.6.2 1.3.6 1.7.5.4 1.2.6 1.8.5.6 0 1.3-.2 1.8-.5.5-.5.7-1.1.6-1.7v-6.4h1.3v6.5c0 .5-.1 1-.3 1.5-.2.4-.4.7-.8 1s-.8.5-1.2.6c-.3.2-.8.2-1.3.2zm9.1-9.8h1.7l2 5.3.3.9c.1.3.2.7.3 1 .1.4.2.7.3 1.1.1-.4.2-.8.4-1.1.1-.3.2-.6.3-1 .1-.3.2-.7.3-.9l2-5.3h1.8v9.7h-1.3v-8.2l-.2.8c-.1.2-.1.5-.2.7-.1.3-.2.5-.2.7l-2.4 6.1h-1L892 604c-.1-.2-.1-.4-.2-.7s-.2-.5-.2-.7l-.2-.8v8.2h-1.2l.1-9.7zm15.8 9.9c-.7 0-1.3-.1-2-.4-.6-.2-1.1-.6-1.5-1.1s-.7-1-.9-1.6c-.2-.6-.3-1.3-.3-2s.1-1.4.3-2c.2-.6.5-1.1.9-1.6s.9-.8 1.5-1.1c.6-.3 1.3-.4 2-.4s1.3.1 2 .4c.6.2 1.1.6 1.5 1.1s.7 1 .9 1.6c.2.6.3 1.3.3 2s-.1 1.4-.3 2c-.2.6-.5 1.1-.9 1.6s-.9.8-1.5 1.1c-.7.3-1.3.4-2 .4zm0-1.2c.5 0 1-.1 1.5-.3.4-.2.8-.5 1.1-.8.3-.4.5-.8.6-1.2.1-.5.2-1 .2-1.5s-.1-1-.2-1.5-.3-.9-.6-1.2c-.3-.3-.6-.6-1.1-.8-.5-.2-1-.3-1.5-.3s-1 .1-1.4.3c-.4.2-.8.5-1.1.8-.3.4-.5.8-.7 1.2-.2.5-.2 1-.2 1.5s.1 1 .2 1.5c.1.4.4.9.7 1.2.3.3.6.6 1.1.8.4.2.9.3 1.4.3zm6.4-8.7h1.4l4 6.1c.1.2.2.4.4.6s.2.4.3.6c.1.2.2.5.4.7l-.1-.7v-7.3h1.2v9.7h-1.4l-4-6.1c-.1-.2-.2-.4-.4-.6s-.2-.4-.4-.6c-.1-.2-.3-.5-.4-.7v7.9h-1.2l.2-9.6zm9 0h7.7v1.2H926v8.5h-1.3v-8.5h-3.2v-1.2z"/><path fill="#0091D7" stroke="#FFF" stroke-width="2" d="M3.2 473.4v-30.2c2.4-1.5 4.6-3.4 6.6-5.5 3.3-3.4 6-7.5 7.7-11.9 4.7-11.8 19.8-11.2 18.3-25.4S30 368.2 30 368.2h0c-1.2.5-2.5.8-3.8.8-3.3 0-7.8-1.8-8.6-11.3-1.4-15.7-2.7-20.4-5.5-36.8-1.2-7.3-4.6-9.8-6-11.6-1.1-1.4-1.1-2.4 1.6-4.8 1.8-1.6 5-3.8 9.9-7.2 21.8-15 37.2-1.4 35.6-19.5s17.9-26.5 17.9-26.5 3.3-10.4 14.3-10.6c2.1 0 4.2.3 6.3.8 16.1 4.4 2.7 8.1 0 22.3s-3.1 22.6 14.8 22.7c12.2 0 22.1 6.6 29.2 6.3 3.4-.1 6.1-1.8 8.2-6.3 4.2-9.2 7.4-22.5 11.5-22.6 2.2 0 4.7 3.8 7.7 13.9 8.8 29.3 12.1 37.5 34.2 43.1 11.6 2.9 16 3.6 17.6 3.5h.4l-1.4 4.9c-4.8-.6-9.7-1-14.6-1.1-2.2.1-3.5.4-3 1.1 1.6 2.5 8 19.4 8 19.4s6.2 27.3 13.2 27.2h.6c7.2-1.4 7.9-3.3 9.2-9s7.5-12.7 8.3-16.9 2.1-4.6-3.4-6.5c-5.3-1.9-2.9-4.7-2.7-4.8 3.8.6 7.5 1.3 11.2 2.3 6.5 1.7 19.1 3.5 21.6 4.1 2.5.7 3.4 27.6 8.1 27.4h.3c4.9-1.1 1.8-5.4 5.5-5.5h.1c3.6 0 7.8 2.1 7.8 2.1l-2.3 6.9s-4.1 4.7-4.6 10.4c-.4 5-5 9.2-.5 9.1.7 0 1.5-.1 2.2-.2 4.8-.8 8.4-2.4 10.9-2.4 1.5-.1 2.9.9 3.2 2.4.1.2.1.3.1.5-1.3 7-55.1 56.9-44.2 58.8.3 0 36.9 2.7 37.6 2.8.2 0 3.2-.1 7.1-.3l-16.9 19.5-5.6 19.7-53.5 3.7-167.4 11.6-47-38.2zm212.3-149.6c.1.1.5.5-.2.6l.2-.6z"/><path fill="#065295" d="M58.4 451.3h4.1c.5 0 .9.1 1.4.2.4.2.7.4 1 .7.2.3.4.5.5.8s.2.7.2 1.1c0 .8-.2 1.5-.8 2.1-.7.6-1.5.8-2.4.8h-2.6v4h-1.3l-.1-9.7zm1.3 4.6h2.5c.5 0 1.1-.1 1.5-.5.3-.3.5-.8.5-1.3s-.1-1-.5-1.3-.9-.5-1.4-.4h-2.5l-.1 3.5zm7.1-4.6h1.3v4.1h5v-4.1h1.3v9.7h-1.3v-4.5h-5v4.5h-1.3v-9.7zm12.4 0h1.5l3.6 9.7h-1.5l-1-2.8H78l-1 2.8h-1.4l3.6-9.7zm-.8 5.8h3.1l-.9-2.7c-.1-.2-.2-.5-.2-.7s-.1-.5-.2-.7-.1-.5-.2-.7c-.1.2-.1.5-.2.7s-.1.4-.2.7c-.1.2-.1.5-.2.7l-1 2.7zm7.1-5.8H90c.4 0 .8.1 1.2.2.3.1.7.3.9.5.3.2.5.5.6.8s.2.7.2 1.1c0 .5-.1 1.1-.4 1.5-.3.5-.8.8-1.4.9.2.1.5.2.7.3.2.1.3.3.4.5s.2.4.3.7c.1.3.1.6.1.9 0 .4.1.7.1 1s.1.5.1.6.1.2.1.4c0 .1.1.1.1.2v.1h-1.4c-.1-.1-.1-.1-.1-.2s-.1-.2-.1-.4 0-.4-.1-.6c0-.3 0-.6-.1-1 0-.5-.2-1-.5-1.4-.4-.3-.9-.5-1.4-.4h-2.6v4h-1.3v-9.7h.1zm1.3 4.6h2.8c.5 0 1.1-.1 1.5-.5.3-.3.5-.8.5-1.3s-.1-.9-.4-1.3c-.4-.3-.9-.5-1.5-.4h-2.8l-.1 3.5zm12.2 5.3c-.7 0-1.3-.1-2-.4-.6-.2-1.1-.6-1.5-1.1s-.7-1-.9-1.6c-.2-.6-.3-1.3-.3-2s.1-1.4.3-2c.2-.6.5-1.1.9-1.6s.9-.8 1.5-1.1c.6-.3 1.3-.4 2-.4s1.3.1 2 .4c.6.2 1.1.6 1.5 1.1s.7 1 .9 1.6c.2.6.3 1.3.3 2s-.1 1.4-.3 2c-.2.6-.5 1.1-.9 1.6s-.9.8-1.5 1.1c-.7.3-1.3.4-2 .4zm0-1.2c.5 0 1-.1 1.4-.3.4-.2.8-.5 1.1-.8.3-.4.5-.8.6-1.2.1-.5.2-1 .2-1.5s-.1-1-.2-1.5-.3-.9-.6-1.2c-.3-.3-.6-.6-1.1-.8-.5-.2-1-.3-1.4-.3-.5 0-1 .1-1.4.3-.4.2-.8.5-1.1.8-.3.4-.5.8-.7 1.2-.2.5-.2 1-.2 1.5s.1 1 .2 1.5c.1.4.4.9.7 1.2.3.3.6.6 1.1.8.4.2.9.3 1.4.3z"/><path fill="#95C9F7" stroke="#FFF" stroke-width="2" d="M455.4 714.1H264.1c-6.2-33-12.5-63.8-20.8-78.3-2.3-3.8-3.6-8.1-3.9-12.6-.2-4.2.3-8.4 1.6-12.3 2.5-8.2 7.5-16.3 12.4-24.2 6.8-11 13.8-22.4 14-33.9.1-5 1.1-9.9 3.1-14.4 1.6-3.5 3.6-6.9 5.8-10.1h0c2.8-4.1 5.2-7.7 5.5-12.1.4-4.8-1.7-10-6.7-16.5-1.6-2-2.7-4.4-3.3-6.9l4.7-16.5 15.9-18.3c2.3-.7 4.7-1.2 7.1-1.5h0c.9 0 4.6-.2 6.7-.4 1.5-.1 2.5-.1 2.8-.1h.3c1.3 0 2.4-1.1 3.2-3.4.8-2.7 1.3-5.4 1.5-8.2 2-6.6 2.3-13.7 1-20.5.1-.6.2-1.3.3-1.9 7.4.2 45.9 1 73 2.8.7.1 1.5.1 2.7.1h0c4.7.1 17.3.3 60.3 3.1v14.2l17.3 110.3h0c.2 2.6.3 4.1.3 4.1h0c.2 1.5 1.5 9.4 3 21.1s3.5 29.4 4.5 47.7c1.1 20.6.7 37.6-1.2 50.7-.8 6.6-2.4 13-4.9 19.2-2.4 5.4-5.4 9.2-8.9 11.1-4 2.3-6 4.8-6 7.7h0z"/><path fill="#065295" d="M328.9 572.2c-.6 0-1.2-.1-1.8-.3-.5-.2-.9-.4-1.3-.7-.3-.3-.6-.7-.8-1.1-.2-.4-.3-.9-.3-1.3h1.3c0 .7.3 1.3.8 1.7.6.4 1.3.6 2 .6.3 0 .6 0 .9-.1s.5-.2.7-.3c.2-.1.4-.3.5-.5s.2-.5.2-.8-.1-.5-.2-.8c-.1-.2-.3-.4-.6-.5-.3-.2-.6-.3-.9-.4s-.7-.2-1.2-.3l-1.2-.3c-.4-.1-.7-.3-1-.5s-.5-.5-.7-.8c-.2-.4-.3-.8-.2-1.2 0-.4.1-.8.2-1.1.2-.3.4-.6.7-.8.3-.2.7-.4 1.1-.5s.9-.2 1.4-.2 1 .1 1.5.2c.4.1.8.3 1.1.6.3.2.5.6.7.9.2.4.3.7.3 1.1h-1.3c-.1-.5-.3-1-.7-1.3-.5-.3-1.1-.5-1.6-.5s-1.1.1-1.5.4c-.4.2-.6.7-.6 1.1 0 .2.1.5.2.7s.3.3.5.4c.3.1.5.2.8.3.3.1.6.2 1 .2.5.1.9.2 1.3.3.4.1.8.3 1.1.5.3.2.6.5.8.9.2.4.3.9.3 1.3s-.1.8-.3 1.2c-.2.4-.4.7-.7.9-.3.3-.7.4-1.1.5-.4.4-.9.5-1.4.5zm7.9-9.9h1.5l3.6 9.7h-1.5l-1-2.8h-3.8l-1 2.8h-1.4l3.6-9.7zm-.8 5.8h3.1l-.9-2.7c-.1-.2-.2-.5-.2-.7s-.1-.5-.2-.7-.1-.5-.2-.7c-.1.2-.1.5-.2.7s-.1.4-.2.7c-.1.2-.1.5-.2.7l-1 2.7zm7.1-5.8h1.3v9.7h-1.3v-9.7zm3.4 0h1.4l4 6.1c.1.2.2.4.4.6s.2.4.3.6c.1.2.2.5.4.7l-.1-.7v-7.3h1.2v9.7h-1.4l-4-6.1c-.1-.2-.2-.4-.4-.6s-.2-.4-.4-.6c-.1-.2-.3-.5-.4-.7v8h-1.3l.3-9.7zm9 0h7.7v1.2H360v8.5h-1.3v-8.5h-3.2v-1.2zm7.7 5.5h3.6v1.1h-3.6v-1.1zm3.6-5.5h1.4l2.1 6.4c.1.2.1.4.2.6s.1.5.2.7c.1.3.1.5.2.8.1-.3.1-.5.2-.8.1-.2.1-.4.2-.7.1-.2.1-.4.2-.6l2.1-6.4h1.4l-3.4 9.7h-1.5l-3.3-9.7zm9.5 0h1.3v9.7h-1.3v-9.7zm7.5 9.9c-.6 0-1.3-.1-1.9-.4-.5-.2-1-.6-1.4-1-.4-.5-.7-1-.9-1.6-.2-.6-.3-1.3-.3-2s.1-1.4.3-2c.2-.6.5-1.1.9-1.6s.9-.8 1.4-1.1c.6-.3 1.3-.4 1.9-.4.5 0 1 .1 1.5.2.4.1.8.4 1.2.6.3.3.6.6.8 1 .2.4.3.8.4 1.3h-1.3c-.1-.6-.4-1.1-.8-1.4-.5-.4-1.1-.6-1.8-.5-.5 0-.9.1-1.4.3-.4.2-.7.5-1 .8-.3.4-.5.8-.6 1.2-.1.5-.2 1-.2 1.5s.1 1.1.2 1.6c.1.4.4.9.7 1.2.3.3.6.6 1 .8.4.2.9.3 1.3.3s.8-.1 1.2-.2c.3-.1.6-.3.8-.6.2-.2.4-.5.5-.8s.2-.6.2-1h1.3c0 .2 0 .5-.1.7s-.1.5-.2.7-.2.5-.4.7c-.1.2-.3.4-.5.6-.7.8-1.7 1.2-2.8 1.1zm4.7-9.9h7.7v1.2H393v8.5h-1.3v-8.5h-3.2v-1.2zm12.9 9.9c-.7 0-1.3-.1-2-.4-.6-.2-1.1-.6-1.5-1.1s-.7-1-.9-1.6c-.2-.6-.3-1.3-.3-2s.1-1.4.3-2c.2-.6.5-1.1.9-1.6s.9-.8 1.5-1.1c.6-.3 1.3-.4 2-.4s1.3.1 2 .4c.6.2 1.1.6 1.5 1.1s.7 1 .9 1.6c.2.6.3 1.3.3 2s-.1 1.4-.3 2c-.2.6-.5 1.1-.9 1.6s-.9.8-1.5 1.1c-.6.3-1.3.4-2 .4zm0-1.2c.5 0 1-.1 1.4-.3.4-.2.8-.5 1.1-.8.3-.4.5-.8.6-1.2.1-.5.2-1 .2-1.5s-.1-1-.2-1.5-.3-.9-.6-1.2c-.3-.3-.7-.6-1.1-.8-.5-.2-.9-.3-1.4-.3s-1 .1-1.4.3c-.4.2-.8.5-1.1.8-.3.4-.5.8-.7 1.2-.2.5-.2 1-.2 1.5s.1 1 .2 1.5c.1.4.4.9.7 1.2.3.3.6.6 1.1.8.4.2.9.3 1.4.3zm6.4-8.7h4.5c.4 0 .8.1 1.2.2.3.1.7.3.9.5.3.2.5.5.6.8s.2.7.2 1.1c0 .5-.1 1.1-.4 1.5-.3.5-.8.8-1.4.9.2.1.5.2.7.3.2.1.3.3.4.5s.2.4.3.7c.1.3.1.6.1.9 0 .4.1.7.1 1s.1.5.1.6.1.2.1.4c0 .1.1.1.1.2v.1h-1.4c-.1-.1-.1-.1-.1-.2s-.1-.2-.1-.4 0-.4-.1-.6c0-.3 0-.6-.1-1 0-.5-.2-1-.5-1.4-.4-.3-.9-.5-1.4-.4H409v4h-1.3v-9.7h.1zm1.3 4.6h2.8c.5 0 1.1-.1 1.5-.5.3-.3.5-.8.5-1.3s-.1-.9-.4-1.3c-.4-.3-.9-.5-1.5-.4h-2.8l-.1 3.5z"/><path fill="#46ADDA" stroke="#FFF" stroke-width="2" stroke-linecap="round" stroke-linejoin="round" d="M200 191s-1.2 28.2 22.9 75.7c5.4 10.8 20-11.7 25.9-3.3 1.3 1.8 8.4 15.8 8.1 15.4-.4-.3 16.3-5 17-5.5-1-.5-3.2-20.3-2.6-20.3.3 0 8.2-4.1 9 0 .4 2.2 4.5 25.7 4.5 25.7s-22.4 38.8-20.6 39.4c38.6 11.8 25.7-17.8 69.6-15.6s116.1-13.1 116.1-13.1 92-14.5 133-4.5 43.2-7.1 12.8-116.7-49.3-149-86-147S438 99.5 390.8 136.3s-70 31.9-70 31.9h-64l7.4 31.7-36.3 17L200 191z"/><path fill="#065295" d="M461.4 166.3h1.3v8.5h5v1.2h-6.3v-9.7zm7.7 0h6.9v1.2h-5.6v2.9h5v1.1h-5v3.3h5.7v1.2h-7v-9.7zm12.1 0h4.1c.5 0 .9.1 1.4.2.4.2.7.4 1 .7.2.3.4.5.5.8s.2.7.2 1.1c0 .8-.2 1.5-.8 2.1-.7.6-1.5.8-2.4.8h-2.6v4h-1.3l-.1-9.7zm1.4 4.6h2.5c.5 0 1.1-.1 1.5-.5.3-.3.5-.8.5-1.3s-.1-1-.5-1.3-.9-.5-1.4-.4h-2.5l-.1 3.5zm9.1-4.6h1.5l3.6 9.7h-1.5l-1-2.8h-3.8l-1 2.8h-1.4l3.6-9.7zm-.8 5.8h3.1l-.9-2.7c-.1-.2-.2-.5-.2-.7s-.1-.5-.2-.7-.1-.5-.2-.7c-.1.2-.1.5-.2.7s-.1.4-.2.7c-.1.2-.1.5-.2.7l-1 2.7zm7.1-5.8h1.4l4 6.1c.1.2.2.4.4.6s.2.4.3.6c.1.2.2.5.4.7l-.1-.7v-7.3h1.2v9.7h-1.4l-4-6.1c-.1-.2-.2-.4-.4-.6s-.2-.4-.4-.6c-.1-.2-.3-.5-.4-.7v8h-1.3v-9.7h.3zm9.7 0h1.3v9.7h-1.3v-9.7zm3.3 0h6.9v1.2h-5.6v2.9h5v1.1h-5v3.3h5.7v1.2h-7v-9.7zm8.7 0h4.5c.4 0 .8.1 1.2.2.3.1.7.3.9.5.3.2.5.5.6.8s.2.7.2 1.1c0 .5-.1 1.1-.4 1.5-.3.5-.8.8-1.4.9.2.1.5.2.7.3.2.1.3.3.4.5s.2.4.3.7c.1.3.1.6.1.9 0 .4.1.7.1 1s.1.5.1.6.1.2.1.4c0 .1.1.1.1.2v.1h-1.4c-.1-.1-.1-.1-.1-.2s-.1-.2-.1-.4 0-.4-.1-.6c0-.3 0-.6-.1-1 0-.5-.2-1-.5-1.4-.4-.3-.9-.5-1.4-.4h-2.6v4h-1.3v-9.7h.1zm1.3 4.6h2.8c.5 0 1.1-.1 1.5-.5.3-.3.5-.8.5-1.3s-.1-.9-.4-1.3c-.4-.3-.9-.5-1.5-.4h-2.8l-.1 3.5z"/><path fill="#95C9F7" stroke="#FFF" stroke-width="2" d="M606.5 380.8h0c1.5-8.6 2.4-17.3 2.7-26 .3-8.6.1-17.2-.7-25.8-.6-7.2-2-14.3-4-21.2-2-6.1-4.5-10.2-7.3-12.3-5.3-3.4-9.8-6.1-13.6-8.2 1-.2 2-.6 2.9-.9 4.2-1.8 7.8-4.7 10.5-8.5 5.6-7.5 8.7-18.6 9.2-33 .7-18.7-3-42.8-11-71.7-1-3.6-1.9-6.7-2.6-9.5 33.9-3.6 189.8-14.7 207.5-16h.2l-7.7 96.3h15.1v117l-109 18.8-92.2 1z"/><path fill="#065295" d="M672.4 238.3h4.2c.9-.1 1.7.2 2.3.8.2.2.4.5.5.7.1.3.2.6.2.9 0 .5-.1.9-.4 1.3s-.7.6-1.2.7c.3.1.6.2.8.3.2.1.5.3.6.5.2.2.3.4.4.7.1.3.2.6.1.9 0 .4-.1.7-.2 1.1-.1.3-.3.6-.5.8-.3.3-.6.5-1 .7s-.9.2-1.4.2h-4.4v-9.6zm4 4.1c.5 0 1-.1 1.3-.4s.5-.7.5-1.1-.1-.8-.4-1.1c-.3-.3-.8-.4-1.2-.4h-2.8v3h2.6zm.3 4.4c.5 0 1.1-.1 1.5-.5.3-.3.4-.7.4-1.1 0-.5-.2-1-.6-1.3s-.9-.5-1.4-.4h-2.9v3.3h3zm4.7-8.5h6.9v1.2h-5.6v2.9h5v1.1h-5v3.3h5.7v1.2h-7v-9.7zm8.6 0h1.3v8.5h5v1.2H690v-9.7zm11.1 9.9c-.6 0-1.2-.1-1.8-.3-.5-.2-.9-.4-1.3-.7-.3-.3-.6-.7-.8-1.1-.2-.4-.3-.9-.3-1.3h1.3c0 .7.3 1.3.8 1.7.6.4 1.3.6 2 .6.3 0 .6 0 .9-.1s.5-.2.7-.3c.2-.1.4-.3.5-.5s.2-.5.2-.8-.1-.5-.2-.8c-.1-.2-.3-.4-.6-.5-.3-.2-.6-.3-.9-.4s-.7-.2-1.2-.3l-1.2-.3c-.4-.1-.7-.3-1-.5s-.5-.5-.7-.8c-.2-.4-.3-.8-.3-1.2 0-.4.1-.8.2-1.1.2-.3.4-.6.7-.8.3-.2.7-.4 1.1-.5s.9-.2 1.4-.2 1 .1 1.5.2c.4.1.8.3 1.1.6.3.2.5.6.7.9.2.4.3.7.3 1.1h-1.3c-.1-.5-.3-1-.7-1.3-.5-.3-1.1-.5-1.6-.5s-1.1.1-1.5.4c-.4.2-.6.7-.6 1.1 0 .2.1.5.2.7s.3.3.5.4c.3.1.5.2.8.3.3.1.6.2 1 .2.5.1.9.2 1.3.3.4.1.8.3 1.1.5.3.2.6.5.8.9.2.4.3.9.3 1.3s-.1.8-.3 1.2c-.2.4-.4.7-.7.9-.3.3-.7.4-1.1.6-.3.3-.8.4-1.3.4zm8.9-.1c-.5 0-1-.1-1.5-.2-.4-.1-.8-.3-1.2-.6-.3-.3-.6-.6-.8-1-.2-.5-.3-1-.3-1.5v-6.5h1.3v6.4c-.1.6.2 1.3.6 1.7.5.4 1.2.6 1.8.5.6 0 1.3-.2 1.8-.5.5-.5.7-1.1.6-1.7v-6.4h1.3v6.5c0 .5-.1 1-.3 1.5-.2.4-.4.7-.8 1s-.8.5-1.2.6c-.3.2-.8.2-1.3.2zm5.6-9.8h1.4l4 6.1c.1.2.2.4.4.6s.2.4.3.6c.1.2.2.5.4.7l-.1-.7v-7.3h1.2v9.7h-1.4l-4-6.1c-.1-.2-.2-.4-.4-.6s-.2-.4-.4-.6c-.1-.2-.3-.5-.4-.7v7.9h-1.2v-9.6h.2zm13.8 9.9c-.6 0-1.3-.1-1.9-.4-.5-.2-1-.6-1.4-1-.4-.5-.7-1-.9-1.6-.2-.6-.3-1.3-.3-2s.1-1.3.3-2c.2-.6.5-1.1.9-1.6s.9-.8 1.4-1.1c.6-.3 1.3-.4 1.9-.4.5 0 1 .1 1.5.2.4.1.8.4 1.2.6.3.3.6.6.8 1 .2.4.3.8.4 1.3H732c-.1-.6-.4-1.1-.8-1.4-.5-.4-1.1-.6-1.8-.5-.5 0-.9.1-1.4.3-.4.2-.7.5-1 .8-.3.4-.5.8-.6 1.2-.1.5-.2 1-.2 1.5s.1 1.1.2 1.6c.1.4.4.9.7 1.2.3.3.6.6 1 .8.4.2.9.3 1.3.3s.8-.1 1.2-.2c.3-.1.6-.3.8-.6.2-.2.4-.5.5-.8s.2-.6.2-1h1.3c0 .2 0 .5-.1.7s-.1.5-.2.7-.2.5-.4.7c-.1.2-.3.4-.5.6-.7.8-1.7 1.2-2.8 1.1zm5.6-9.9h6.9v1.2h-5.6v2.9h5v1.1h-5v3.3h5.7v1.2h-7v-9.7z"/><path fill="#46ADDA" stroke="#FFF" stroke-width="2" d="M551.7 384.7c0 .1-2 19.4-2.5 21.1s127.5 2.1 149.5-2.2 413.3-70.7 413.3-70.7v-24.4l-413.3 71.3-146.4 1.7-.6 3.2z"/><path opacity=".996" fill="#FFF" d="M629.4 397v-10.7h2.7v8.5h4.8v2.2h-7.5zm10.7.2c-.7 0-1.4-.2-1.9-.6s-.8-1.1-.7-1.7c-.1-.7.2-1.3.8-1.7.7-.4 1.4-.6 2.2-.7.5 0 1-.1 1.5-.3.2-.1.4-.3.4-.5 0-.5-.3-.8-1-.8-.8 0-1.2.3-1.2 1H638c0-.7.4-1.4.9-1.9.7-.5 1.6-.8 2.5-.8.9-.1 1.7.2 2.5.6.7.5 1 1.3 1 2.2v3.9c0 .6.1 1 .3 1.1v.1h-2.4l-.3-.9c-.6.7-1.5 1.1-2.4 1zm.8-1.6c.4 0 .8-.1 1.1-.4.3-.3.4-.6.4-1v-.9c-.4.2-.8.3-1.3.4-.4.1-.7.2-1 .4-.2.2-.3.4-.3.6.1.6.4.9 1.1.9zm12.4 1.6c-1.4.1-2.8-.5-3.8-1.6s-1.5-2.5-1.5-4c-.1-1.5.5-2.9 1.5-4s2.4-1.6 3.8-1.6c1.1 0 2.2.3 3.1.9.9.7 1.5 1.8 1.6 3h-2.7c-.1-.5-.3-.9-.6-1.2-.4-.3-.9-.5-1.4-.5-.8 0-1.5.3-1.9.9-.5.7-.7 1.6-.7 2.5s.2 1.7.7 2.4c.4.6 1.1 1 1.9.9.5 0 1-.2 1.4-.5s.6-.8.7-1.3h2.7c-.1 1-.5 2-1.3 2.7-1 1.1-2.2 1.5-3.5 1.4zm7.8 0c-.7 0-1.4-.2-1.9-.6s-.8-1.1-.7-1.7c-.1-.7.2-1.3.8-1.7.7-.4 1.4-.6 2.2-.7.5 0 1-.1 1.5-.3.2-.1.4-.3.4-.5 0-.6-.3-.8-1-.8-.8 0-1.2.3-1.2 1H659c0-.7.4-1.4.9-1.9.7-.5 1.6-.8 2.5-.8.9-.1 1.7.2 2.5.6.7.5 1 1.3 1 2.2v3.9c0 .6.1 1 .3 1.1v.1h-2.4l-.3-.9c-.7.7-1.5 1.1-2.4 1zm.8-1.6c.4 0 .8-.1 1.1-.4.3-.3.4-.6.4-1v-.9c-.4.2-.8.3-1.3.4-.4.1-.7.2-1 .4-.2.2-.3.4-.3.6 0 .6.4.9 1.1.9zm5 1.4v-7.7h2.4v1.1c.5-.8 1.4-1.3 2.4-1.3.7 0 1.5.3 2 .8.5.6.7 1.3.7 2.1v5H672v-4.5c0-.4-.1-.7-.3-1-.2-.3-.6-.4-.9-.4-.4 0-.7.2-1 .5s-.4.7-.4 1.2v4.2h-2.5zm12.3.2c-1.1.1-2.2-.4-3-1.1-.8-.8-1.2-1.8-1.1-2.9 0-1.1.4-2.1 1.1-2.9s1.8-1.2 2.8-1.2 1.9.3 2.6 1c1 1 1.5 2.4 1.3 3.7h-5.5c0 .5.2.9.6 1.2.3.3.7.5 1.2.4.5.1 1.1-.3 1.3-.8h2.4c-.2.7-.6 1.4-1.3 1.8-.7.6-1.5.8-2.4.8zm-1.6-4.9h3c0-.4-.2-.8-.5-1.1-.3-.3-.6-.4-1-.4-.8 0-1.4.5-1.5 1.5zm11 4.9c-.9.1-1.8-.4-2.3-1.2v1H684v-10.7h2.4v3.9c.5-.7 1.3-1.1 2.2-1.1.9 0 1.8.4 2.4 1.2.6.8.9 1.9.9 2.9.1 1.1-.3 2.1-.9 3-.6.7-1.5 1.1-2.4 1zm-.7-1.9c.4 0 .9-.2 1.1-.6.3-.5.4-1 .4-1.6s-.1-1.1-.4-1.6c-.2-.4-.7-.6-1.1-.6-.5 0-.9.2-1.2.6-.3.5-.4 1-.4 1.6s.1 1.1.4 1.6c.3.4.7.6 1.2.6zm4.8 1.7v-7.7h2.4v7.7h-2.4zm0-8.7v-2h2.4v2h-2.4zm7.3 8.9c-1.1.1-2.2-.4-3-1.1-.8-.8-1.2-1.8-1.1-2.9 0-1.1.4-2.1 1.1-2.9s1.8-1.2 2.8-1.1c1 0 1.9.3 2.6 1 1 1 1.5 2.4 1.3 3.7h-5.5c0 .5.2.9.6 1.2.3.3.7.5 1.2.4.5.1 1.1-.3 1.3-.8h2.4c-.2.7-.6 1.4-1.3 1.8-.7.5-1.5.7-2.4.7zm-1.6-4.9h3c0-.4-.2-.8-.5-1.1-.3-.3-.6-.4-1-.4-.8 0-1.4.5-1.5 1.5zm.7-3.9l-1.8-2.2h2.8l.9 2.2h-1.9zm5.6 8.6v-7.7h2.3v1.2c.4-.8 1.2-1.3 2.1-1.3.2 0 .3 0 .5.1v2.1h-.1c-.6-.1-1.3 0-1.8.4-.5.5-.7 1.1-.7 1.8v3.4h-2.3zm9.3.2c-1.1.1-2.2-.4-3-1.1-.8-.8-1.2-1.8-1.1-2.9 0-1.1.4-2.1 1.1-2.9s1.8-1.2 2.8-1.2 1.9.3 2.6 1c1 1 1.5 2.4 1.4 3.7h-5.5c0 .5.2.9.6 1.2.3.3.7.5 1.2.4.5.1 1.1-.3 1.3-.8h2.4c-.2.7-.6 1.4-1.3 1.8-.8.6-1.6.8-2.5.8zm-1.6-4.9h3c0-.4-.2-.8-.5-1.1-.3-.3-.6-.4-1-.4-.8 0-1.4.5-1.5 1.5z"/><path fill="#CCE9F7" stroke="#FFF" stroke-width="2" stroke-linecap="round" stroke-linejoin="round" d="M174.5 181.5l35-40.2L259 .5h-6.1l-48.4 137-35 40.8 5 3.2z"/><g fill="#FFF"><path opacity=".996" d="M248.1 234v-10h3.3l1.2 4.4.6 2.3c.3-1.1.4-1.9.6-2.3l1.2-4.4h3.4v10h-2.3v-7c-.2 1-.4 1.6-.5 1.9l-1.4 5.2h-2l-1.4-5.2-.5-1.9v7h-2.2zm14 .2c-.7 0-1.4-.2-1.9-.7s-.7-1.2-.7-2v-4.7h2.3v4.2c0 .8.4 1.2 1.1 1.2.4 0 .7-.1.9-.4.2-.3.4-.7.3-1v-4h2.3v7.2h-2.2v-.9c-.5.7-1.3 1.1-2.1 1.1zm8.9 0c-1 0-2-.3-2.8-1.1-.7-.7-1.1-1.7-1.1-2.7s.3-2 1-2.7 1.7-1.1 2.7-1.1c.8 0 1.7.2 2.3.8.6.5 1 1.2 1.1 2H272c0-.6-.6-1.1-1.2-1.1-.4 0-.9.2-1.1.6-.3.5-.4 1-.4 1.6 0 .5.1 1.1.4 1.5.2.4.7.6 1.1.6.7 0 1.1-.4 1.2-1.2h2.2c0 .8-.4 1.6-1 2.1-.4.5-1.3.8-2.2.7zm7.6 0c-1 0-2-.3-2.8-1.1-.7-.7-1.1-1.7-1-2.7 0-1 .3-2 1-2.7s1.7-1.1 2.7-1.1c.9 0 1.8.3 2.5.9.9.9 1.4 2.2 1.3 3.5h-5.2c0 .4.2.8.5 1.2.3.3.7.4 1.1.4.5 0 1-.2 1.2-.7h2.2c-.2.7-.6 1.3-1.2 1.7-.7.4-1.5.6-2.3.6zm-1.5-4.6h2.8c0-.4-.2-.7-.4-1-.2-.3-.6-.4-.9-.4-.9 0-1.4.5-1.5 1.4zm5.9 4.4v-7.2h2.2v1c.4-.8 1.3-1.3 2.2-1.2.9 0 1.7.5 2 1.3.5-.8 1.3-1.3 2.3-1.3.7 0 1.4.2 1.8.7.4.6.7 1.3.6 2v4.7h-2.3v-4.3c0-.8-.3-1.2-1-1.2-.3 0-.6.1-.8.4-.2.3-.3.7-.3 1.1v4h-2.3v-4.3c0-.8-.3-1.2-1-1.2-.3 0-.6.1-.8.4-.2.3-.3.7-.3 1.1v4H283z"/><g transform="translate(-181.623 614)"><circle cx="438.5" cy="-362.5" r="6.5"/><circle opacity=".5" cx="438.5" cy="-362.5" r="10.5"/></g></g><g fill="#FFF"><path opacity=".996" d="M137.2 330v-10h4.5c1-.1 2 .3 2.7.9s1 1.5 1 2.5c0 .9-.3 1.7-.9 2.4-.7.6-1.5 1-2.5.9h-2.3v3.3h-2.5zm2.5-5.3h1.8c.4 0 .7-.1 1-.4s.4-.6.4-1-.1-.7-.4-.9c-.3-.2-.7-.4-1-.3h-1.8v2.6zm8.2 5.5c-.6 0-1.3-.2-1.8-.6s-.7-1-.7-1.6c-.1-.6.2-1.2.7-1.6.6-.4 1.3-.6 2-.7.5 0 1-.1 1.4-.3.2-.1.4-.3.4-.5 0-.5-.3-.8-1-.8s-1.1.3-1.2.9h-2.1c0-.7.3-1.3.9-1.8.7-.5 1.5-.8 2.4-.7.8-.1 1.6.1 2.3.6.6.5 1 1.3.9 2v3.6c0 .6.1.9.3 1v.1h-2.2c-.1-.2-.2-.5-.2-.8-.4.9-1.2 1.2-2.1 1.2zm.7-1.5c.4 0 .8-.1 1-.4.3-.2.4-.6.4-.9v-.9c-.4.2-.8.3-1.2.4-.3.1-.7.2-1 .4-.2.1-.3.4-.3.6.2.6.5.8 1.1.8zm4.8 1.3v-10h2.3v10h-2.3zm5.5.2c-.6 0-1.3-.2-1.8-.6s-.7-1-.7-1.6c-.1-.6.2-1.2.7-1.6.6-.4 1.3-.6 2-.7.5 0 1-.1 1.4-.3.2-.1.4-.3.4-.5 0-.5-.3-.8-1-.8s-1.1.3-1.2.9h-2.1c0-.7.3-1.3.9-1.8.7-.5 1.5-.8 2.4-.7.8-.1 1.6.1 2.3.6.6.5 1 1.3.9 2v3.6c0 .6.1.9.3 1v.1h-2.2c-.1-.2-.2-.5-.2-.8-.4.9-1.2 1.2-2.1 1.2zm.8-1.5c.4 0 .8-.1 1-.4.3-.2.4-.6.4-.9v-.9c-.4.2-.8.3-1.2.4-.3.1-.7.2-1 .4-.2.1-.3.4-.3.6.1.6.4.8 1.1.8zm4.7 1.3v-7.2h2.3v7.2h-2.3zm0-8.2V320h2.3v1.8h-2.3zm6.4 8.4c-.9 0-1.8-.2-2.5-.7-.6-.4-1-1.1-1-1.9h2.2c0 .6.6 1.1 1.2 1.1h.1c.3 0 .6-.1.8-.2.2-.1.3-.3.3-.5v-.2c0-.1-.1-.1-.1-.2l-.1-.1c-.1 0-.1-.1-.2-.1s-.2-.1-.2-.1-.1 0-.3-.1l-.3-.1c-.1 0-.2 0-.3-.1s-.2 0-.3 0c-.3 0-.6-.1-.8-.1-.2-.1-.5-.1-.7-.2s-.4-.2-.6-.4c-.2-.2-.3-.4-.4-.6-.1-.3-.2-.6-.2-.9 0-.7.3-1.3.9-1.7.7-.4 1.4-.6 2.2-.6.8 0 1.6.2 2.3.6.5.4.9 1 .9 1.7h-2.1c-.1-.6-.5-.8-1.1-.8-.3 0-.5 0-.7.2-.2.1-.3.3-.3.5v.2l.1.1.1.1c.1 0 .1.1.2.1s.1.1.2.1.2 0 .3.1h.3l.3.1h.3c.3.1.6.1.8.2.2.1.5.1.7.2s.5.2.7.4c.2.2.3.4.4.6.1.3.2.6.2.9 0 .7-.3 1.4-.9 1.8-.7.4-1.6.7-2.4.6zm-40.2 15c-.9 0-1.7-.4-2.3-1-.6-.8-.9-1.8-.9-2.8s.3-2 .9-2.7c.5-.7 1.4-1.1 2.3-1.1.8 0 1.6.4 2 1v-3.7h2.3v10h-2.2v-1c-.4.9-1.3 1.4-2.1 1.3zm.6-1.8c.4 0 .9-.2 1.1-.6.3-.4.4-.9.4-1.4s-.1-1.1-.4-1.5c-.2-.4-.7-.6-1.1-.6s-.8.2-1.1.6c-.3.4-.4 1-.4 1.5s.1 1 .4 1.5c.2.3.6.5 1.1.5zm7.3 1.8c-.7 0-1.4-.2-1.9-.7s-.7-1.2-.7-2v-4.7h2.3v4.2c0 .8.4 1.2 1.1 1.2.4 0 .7-.1.9-.4.2-.3.4-.7.3-1v-4h2.3v7.2h-2.2v-.9c-.5.7-1.3 1.1-2.1 1.1zm7.7-.2v-10h4.5c1-.1 2 .3 2.7.9s1 1.5 1 2.5c0 .9-.3 1.7-.9 2.4-.7.6-1.5 1-2.5.9h-2.3v3.3h-2.5zm2.5-5.3h1.8c.4 0 .7-.1 1-.4s.4-.6.4-1-.1-.7-.4-.9c-.3-.2-.7-.4-1-.3h-1.8v2.6zm6.5 5.3v-10h2.3v3.7c.5-.7 1.3-1.1 2.1-1.1.7 0 1.4.2 1.8.7.5.5.7 1.3.7 2v4.7h-2.3v-4.2c0-.3-.1-.7-.3-.9-.2-.2-.5-.4-.8-.3-.4 0-.7.1-.9.4-.2.3-.4.7-.3 1.1v4l-2.3-.1zm10.1.2c-.6 0-1.3-.2-1.8-.6s-.7-1-.7-1.6c-.1-.6.2-1.2.7-1.6.6-.4 1.3-.6 2-.7.5 0 1-.1 1.4-.3.2-.1.4-.3.4-.5 0-.5-.3-.8-1-.8s-1.1.3-1.2.9H163c0-.7.3-1.3.9-1.8.7-.5 1.5-.8 2.4-.7.8-.1 1.6.1 2.3.6.6.5 1 1.3.9 2v3.6c0 .6.1.9.3 1v.1h-2.2c-.1-.2-.2-.5-.2-.8-.5.9-1.3 1.2-2.1 1.2zm.7-1.5c.4 0 .8-.1 1-.4.3-.2.4-.6.4-.9v-.9c-.4.2-.8.3-1.2.4-.3.1-.7.2-1 .4-.2.1-.3.4-.3.6.2.6.5.8 1.1.8zm4.8 1.3v-7.2h2.2v1.1c.4-.7 1.1-1.2 2-1.2.2 0 .3 0 .4.1v2h-.1c-.6-.1-1.2 0-1.7.4-.4.4-.7 1.1-.6 1.7v3.2l-2.2-.1zm7.6-2c.2.4.7.6 1.1.6.5 0 .9-.2 1.1-.6.3-.5.4-1 .4-1.6s-.1-1.1-.4-1.6c-.2-.4-.7-.6-1.1-.6-.5 0-.9.2-1.1.6-.3.5-.4 1-.4 1.6-.1.6.1 1.1.4 1.6zm3.9 1.1c-.7.7-1.7 1.1-2.8 1.1-2 .1-3.7-1.5-3.8-3.5v-.3c-.1-2 1.5-3.7 3.5-3.8h.3c2-.1 3.7 1.5 3.8 3.5v.3c.1 1-.3 2-1 2.7z"/><g transform="translate(-283.623 659)"><circle cx="438.5" cy="-362.5" r="6.5"/><circle opacity=".5" cx="438.5" cy="-362.5" r="10.5"/></g></g><g fill="#FFF"><path opacity=".996" d="M50.1 399v-10h4.5c1-.1 2 .3 2.7.9s1 1.5 1 2.5c0 .9-.3 1.7-.9 2.4-.7.6-1.5 1-2.5.9h-2.3v3.3h-2.5zm2.5-5.3h1.8c.4 0 .7-.1 1-.4s.4-.6.4-1-.1-.7-.4-.9c-.3-.2-.7-.4-1-.3h-1.8v2.6zm6.5 5.3v-10h2.3v10h-2.3zm5.5.2c-.6 0-1.3-.2-1.8-.6s-.7-1-.7-1.6c-.1-.6.2-1.2.7-1.6.6-.4 1.3-.6 2-.7.5 0 1-.1 1.4-.3.2-.1.4-.3.4-.5 0-.5-.3-.8-1-.8s-1.1.3-1.2.9h-2.1c0-.7.3-1.3.9-1.8.7-.5 1.5-.8 2.4-.7.8-.1 1.6.1 2.3.6.6.5 1 1.3.9 2v3.6c0 .6.1.9.3 1v.1h-2.2c-.1-.2-.2-.5-.2-.8-.5.9-1.3 1.2-2.1 1.2zm.7-1.5c.4 0 .8-.1 1-.4.3-.2.4-.6.4-.9v-.9c-.4.2-.8.3-1.2.4-.3.1-.7.2-1 .4-.2.1-.3.4-.3.6.1.6.5.8 1.1.8zm8.1 3.8c-.8 0-1.7-.2-2.4-.6-.6-.4-1-1-1.1-1.7h2.2c.2.5.6.7 1.3.7.7.1 1.3-.4 1.4-1v-1h-.1c-.5.5-1.1.8-1.8.8-.8 0-1.6-.3-2.2-.9-.6-.7-1-1.6-.9-2.5 0-.9.3-1.9.8-2.6s1.3-1 2.2-1c.8 0 1.6.3 2 1v-.8H77v6.5c0 .9-.3 1.8-1 2.4-.7.5-1.7.7-2.6.7zm0-4.6c.4 0 .8-.2 1.1-.5.3-.4.4-.8.4-1.3s-.1-.9-.4-1.3c-.3-.3-.7-.5-1.1-.5s-.8.2-1 .5c-.3.4-.4.8-.4 1.3s.1.9.4 1.3c.2.3.6.5 1 .5zm8.2 2.3c-1 0-2-.3-2.8-1.1-.7-.7-1.1-1.7-1-2.7 0-1 .3-2 1-2.7s1.7-1.1 2.7-1.1c.9 0 1.8.3 2.4.9.9.9 1.4 2.2 1.3 3.5H80c0 .4.2.8.5 1.2.3.3.7.4 1.1.4.5 0 1-.2 1.2-.7H85c-.2.7-.6 1.3-1.2 1.7-.7.4-1.4.6-2.2.6zm-1.6-4.6h2.8c0-.4-.2-.7-.4-1-.2-.3-.6-.4-.9-.4-.8 0-1.3.5-1.5 1.4zm10.9 4.6c-.9 0-1.7-.4-2.3-1-.6-.8-.9-1.8-.9-2.8s.3-2 .9-2.7c.5-.7 1.4-1.1 2.3-1.1.8 0 1.6.4 2 1v-3.7h2.3v10H93v-1c-.4.9-1.2 1.4-2.1 1.3zm.6-1.8c.4 0 .8-.2 1.1-.6.3-.4.4-.9.4-1.4s-.1-1.1-.4-1.5c-.2-.4-.7-.6-1.1-.6s-.8.2-1.1.6c-.3.4-.4 1-.4 1.5s.1 1 .4 1.5c.3.3.7.5 1.1.5zm8.3 1.8c-1 0-2-.3-2.8-1.1-.7-.7-1.1-1.7-1-2.7 0-1 .3-2 1-2.7s1.7-1.1 2.7-1.1c.9 0 1.8.3 2.5.9.9.9 1.4 2.2 1.3 3.5h-5.2c0 .4.2.8.5 1.2.3.3.7.4 1.1.4.5 0 1-.2 1.2-.7h2.2c-.2.7-.6 1.3-1.2 1.7-.7.4-1.5.6-2.3.6zm-1.6-4.6h2.8c0-.4-.2-.7-.4-1-.2-.3-.6-.4-.9-.4-.8 0-1.3.5-1.5 1.4zm9 4.6c-.9 0-1.8-.2-2.5-.7-.6-.4-1-1.1-1-1.9h2.2c0 .6.6 1.1 1.2 1.1h.1c.3 0 .6-.1.8-.2.2-.1.3-.3.3-.5v-.2c0-.1-.1-.1-.1-.2l-.1-.1c-.1 0-.1-.1-.2-.1s-.2-.1-.2-.1-.1 0-.3-.1l-.3-.1c-.1 0-.2 0-.3-.1s-.2 0-.3 0c-.3 0-.6-.1-.8-.1-.2-.1-.5-.1-.7-.2s-.4-.2-.6-.4c-.2-.2-.3-.4-.4-.6-.1-.3-.2-.6-.2-.9 0-.7.3-1.3.9-1.7.7-.4 1.4-.6 2.2-.6.8 0 1.6.2 2.3.6.5.4.9 1 .9 1.7H108c-.1-.6-.5-.8-1.1-.8-.3 0-.5 0-.7.2-.2.1-.3.3-.3.5v.2l.1.1.1.1c.1 0 .1.1.2.1s.1.1.2.1.2 0 .3.1h.3l.3.1h.3c.3.1.6.1.8.2.2.1.5.1.7.2s.5.2.7.4c.2.2.3.4.4.6.1.3.2.6.2.9 0 .7-.3 1.4-.9 1.8-.7.4-1.6.7-2.4.6zm-52.6 15c-1.3 0-2.6-.5-3.6-1.5-.9-1-1.4-2.4-1.4-3.7 0-1.4.4-2.7 1.4-3.8.9-1 2.2-1.5 3.6-1.5 1 0 2 .3 2.9.9.9.7 1.4 1.7 1.5 2.8h-2.5c-.1-.4-.3-.8-.6-1.1-.4-.3-.8-.5-1.3-.4-.7 0-1.4.3-1.8.9-.4.7-.6 1.5-.6 2.3s.2 1.6.7 2.3c.4.6 1.1.9 1.8.9.5 0 1-.1 1.3-.5.3-.3.6-.7.6-1.2h2.5c-.1 1-.5 1.9-1.2 2.6-1 .7-2.1 1.1-3.3 1zm7.3 0c-.6 0-1.3-.2-1.8-.6s-.7-1-.7-1.6c-.1-.6.2-1.2.7-1.6.6-.4 1.3-.6 2-.7.5 0 1-.1 1.4-.3.2-.1.4-.3.4-.5 0-.5-.3-.8-1-.8s-1.1.3-1.2.9h-2.1c0-.7.3-1.3.9-1.8.7-.5 1.5-.8 2.4-.7.8-.1 1.6.1 2.3.6.6.5 1 1.3.9 2v3.6c0 .6.1.9.3 1v.1h-2.2c-.1-.2-.2-.5-.2-.8-.5.9-1.3 1.2-2.1 1.2zm.7-1.5c.4 0 .8-.1 1-.4.3-.2.4-.6.4-.9v-.9c-.4.2-.8.3-1.2.4-.3.1-.7.2-1 .4-.2.1-.3.4-.3.6.1.6.4.8 1.1.8zm7.4 1.4c-.6 0-1.2-.1-1.7-.4-.4-.4-.7-1-.6-1.5v-3.8h-1V407h1v-2.3h2.2v2.3h1.3v1.4h-1.3v3.4c0 .2.1.4.2.5.2.1.4.2.6.2h.5v1.7c-.3-.1-.8-.1-1.2-.1zm4.4.1c-.6 0-1.3-.2-1.8-.6s-.7-1-.7-1.6c-.1-.6.2-1.2.7-1.6.6-.4 1.3-.6 2-.7.5 0 1-.1 1.4-.3.2-.1.4-.3.4-.5 0-.5-.3-.8-1-.8s-1.1.3-1.2.9h-2.1c0-.7.3-1.3.9-1.8.7-.5 1.5-.8 2.4-.7.8-.1 1.6.1 2.3.6.6.5 1 1.3.9 2v3.6c0 .6.1.9.3 1v.1h-2.2c-.1-.2-.2-.5-.2-.8-.5.9-1.3 1.2-2.1 1.2zm.7-1.5c.4 0 .8-.1 1-.4.3-.2.4-.6.4-.9v-.9c-.4.2-.8.3-1.2.4-.3.1-.7.2-1 .4-.2.1-.3.4-.3.6.1.6.4.8 1.1.8zm4.7 1.3v-10h2.3v10h-2.3zm5.6.2c-.6 0-1.3-.2-1.8-.6s-.7-1-.7-1.6c-.1-.6.2-1.2.7-1.6.6-.4 1.3-.6 2-.7.5 0 1-.1 1.4-.3.2-.1.4-.3.4-.5 0-.5-.3-.8-1-.8s-1.1.3-1.2.9h-2.1c0-.7.3-1.3.9-1.8.7-.5 1.5-.8 2.4-.7.8-.1 1.6.1 2.3.6.6.5 1 1.3.9 2v3.6c0 .6.1.9.3 1v.1h-2.2c-.1-.2-.2-.5-.2-.8-.5.9-1.3 1.2-2.1 1.2zm.7-1.5c.4 0 .8-.1 1-.4.3-.2.4-.6.4-.9v-.9c-.4.2-.8.3-1.2.4-.3.1-.7.2-1 .4-.2.1-.3.4-.3.6.1.6.4.8 1.1.8zm4.7 1.3v-7.2H93v1c.5-.8 1.3-1.2 2.2-1.2.7 0 1.4.2 1.8.7.5.5.7 1.3.7 2v4.7h-2.3v-4.2c0-.3-.1-.7-.3-.9-.2-.2-.5-.4-.8-.3-.4 0-.7.1-.9.4-.2.3-.4.7-.3 1.1v4l-2.3-.1zm11 .2c-.9 0-1.8-.2-2.5-.7-.6-.4-1-1.1-1-1.9h2.2c0 .6.6 1.1 1.2 1.1h.1c.3 0 .6-.1.8-.2.2-.1.3-.3.3-.5v-.2c0-.1-.1-.1-.1-.2l-.1-.1c-.1 0-.1-.1-.2-.1s-.2-.1-.2-.1-.1 0-.3-.1l-.3-.1c-.1 0-.2 0-.3-.1s-.2 0-.3 0c-.3 0-.5-.1-.8-.1-.2-.1-.5-.1-.7-.2s-.4-.2-.6-.4c-.2-.2-.3-.4-.4-.6-.1-.3-.2-.6-.2-.9 0-.7.3-1.3.9-1.7 1.4-.8 3.1-.8 4.5 0 .5.4.9 1 .9 1.7h-2.1c-.1-.6-.5-.8-1.1-.8-.3 0-.5 0-.7.2-.2.1-.3.3-.3.5v.2l.1.1.1.1c.1 0 .1.1.2.1s.1.1.2.1.2 0 .3.1h.3l.3.1h.3c.3.1.6.1.8.2.2.1.5.1.7.2s.5.2.7.4c.2.2.3.4.4.6.1.3.2.6.2.9 0 .7-.3 1.4-.9 1.8-.7.5-1.5.7-2.4.6z"/><g transform="translate(-403.623 765)"><circle cx="438.5" cy="-362.5" r="6.5"/><circle opacity=".5" cx="438.5" cy="-362.5" r="10.5"/></g></g><g fill="#FFF"><path opacity=".996" d="M189.7 430v-10h7.4v2.1h-5v2h4.2v2h-4.2v3.9h-2.4zm10.1-2c.2.4.7.6 1.1.6.5 0 .9-.2 1.1-.6.3-.5.4-1 .4-1.6s-.1-1.1-.4-1.6c-.2-.4-.7-.6-1.1-.6-.5 0-.9.2-1.1.6-.3.5-.4 1-.4 1.6s.1 1.1.4 1.6zm3.9 1.1c-.7.7-1.7 1.1-2.8 1.1-1 0-2-.3-2.8-1.1-.7-.7-1.1-1.7-1.1-2.7s.4-2 1.1-2.7 1.7-1.1 2.8-1.1c1 0 2 .3 2.8 1.1.7.7 1.1 1.7 1.1 2.7 0 1-.4 2-1.1 2.7zm1.8.9v-7.2h2.2v1.1c.4-.7 1.1-1.2 2-1.2.2 0 .3 0 .4.1v2h-.1c-.6-.1-1.2 0-1.7.4-.4.4-.7 1.1-.6 1.7v3.2l-2.2-.1zm8.4.1c-.6 0-1.2-.1-1.7-.4-.4-.4-.7-1-.6-1.5v-3.8h-.9V423h1v-2.3h2.2v2.3h1.3v1.4h-1.3v3.4c0 .2.1.4.2.5.2.1.4.2.6.2h.5v1.7c-.5-.1-.9-.1-1.3-.1zm-59.4 15.1c-1.1.1-2.3-.2-3.2-.9-.8-.6-1.3-1.5-1.2-2.5h2.5c.1 1 .8 1.4 2 1.4.4 0 .8-.1 1.1-.3.3-.1.5-.5.5-.8 0-.2-.1-.5-.3-.6-.2-.2-.4-.3-.6-.3-.2-.1-.6-.2-1.1-.3h-.2c-.4-.1-.8-.2-1.1-.3-.3-.1-.6-.2-.9-.4-.3-.1-.6-.3-.8-.5-.2-.2-.4-.5-.5-.8s-.2-.7-.2-1.1c-.1-.9.4-1.8 1.1-2.3.9-.5 1.9-.8 2.9-.8s2 .2 2.8.8c.7.5 1.2 1.4 1.2 2.3h-2.4c0-.4-.2-.7-.5-.9-.3-.2-.7-.3-1.1-.3s-.7.1-1 .3c-.2.1-.4.4-.4.7 0 .3.2.6.5.7.6.2 1.2.4 1.8.5.5.1.9.2 1.4.4.4.1.7.3 1.1.5s.6.5.8.9a2.982 2.982 0 01-.9 3.7c-1.3.7-2.3 1-3.3.9zm7.6-.1c-.6 0-1.2-.1-1.7-.4-.4-.4-.7-1-.6-1.5v-3.8h-1V438h1v-2.3h2.2v2.3h1.3v1.4H162v3.4c0 .2.1.4.2.5.2.1.4.2.6.2h.5v1.7c-.3-.1-.7-.1-1.2-.1zm1.9-2.6v-2h3.8v2H164zm5 2.5v-10h2.5l3 5 .7 1.3V435h2.4v10h-2.5l-2.9-5-.7-1.3v6.3H169zm9.8 0v-7.2h2.3v7.2h-2.3zm0-8.2V435h2.3v1.8h-2.3zm6.8 8.4c-1 0-2-.3-2.8-1.1-.7-.7-1.1-1.7-1-2.7 0-1 .3-2 1-2.7s1.7-1.1 2.7-1.1c.8 0 1.7.2 2.3.8.6.5 1 1.2 1.1 2h-2.2c0-.6-.6-1.1-1.2-1.1-.4 0-.9.2-1.1.6-.3.5-.4 1-.4 1.6 0 .5.1 1.1.4 1.5.2.4.7.6 1.1.6.7 0 1.1-.4 1.2-1.2h2.2c0 .8-.4 1.6-1 2.1-.5.5-1.4.8-2.3.7zm6.5-2.2c.2.4.7.6 1.1.6.5 0 .9-.2 1.1-.6.3-.5.4-1 .4-1.6s-.1-1.1-.4-1.6c-.2-.4-.7-.6-1.1-.6-.5 0-.9.2-1.1.6-.3.5-.4 1-.4 1.6s.2 1.1.4 1.6zm3.9 1.1c-.7.7-1.7 1.1-2.8 1.1-1 0-2-.3-2.8-1.1-.7-.7-1.1-1.7-1.1-2.7s.4-2 1.1-2.7 1.7-1.1 2.8-1.1c1 0 2 .3 2.8 1.1.7.7 1.1 1.7 1.1 2.7s-.4 2-1.1 2.7zm1.9.9v-10h2.3v10h-2.3zm5.5.2c-.6 0-1.3-.2-1.8-.6s-.7-1-.7-1.6c-.1-.6.2-1.2.7-1.6.6-.4 1.3-.6 2-.7.5 0 1-.1 1.4-.3.2-.1.4-.3.4-.5 0-.5-.3-.8-1-.8s-1.1.3-1.2.9h-2.1c0-.7.3-1.3.9-1.8.7-.5 1.5-.8 2.4-.7.8-.1 1.6.1 2.3.6.6.5 1 1.3.9 2v3.6c0 .6.1.9.3 1v.1h-2.2c-.1-.2-.2-.5-.2-.8-.5.9-1.3 1.2-2.1 1.2zm.7-1.5c.4 0 .8-.1 1-.4.3-.2.4-.6.4-.9v-.9c-.4.2-.8.3-1.2.4-.3.1-.7.2-1 .4-.2.1-.3.4-.3.6.2.6.5.8 1.1.8zm7.8 1.5c-.9 0-1.8-.2-2.5-.7-.6-.4-1-1.1-1-1.9h2.2c0 .6.6 1.1 1.2 1.1h.1c.3 0 .6-.1.8-.2.2-.1.3-.3.3-.5v-.2c0-.1-.1-.1-.1-.2l-.1-.1c-.1 0-.1-.1-.2-.1s-.2-.1-.2-.1-.1 0-.3-.1l-.3-.1c-.1 0-.2 0-.3-.1h-.3c-.3 0-.6-.1-.8-.1-.2-.1-.5-.1-.7-.2s-.4-.2-.6-.4c-.2-.2-.3-.4-.4-.6-.1-.3-.2-.6-.2-.9 0-.7.3-1.3.9-1.7.7-.4 1.4-.6 2.2-.6.8 0 1.6.2 2.3.6.5.4.9 1 .9 1.7h-2.1c-.1-.6-.5-.8-1.1-.8-.3 0-.5 0-.7.2-.2.1-.3.3-.3.5v.2l.1.1.1.1c.1 0 .1.1.2.1s.1.1.2.1.2 0 .3.1h.3l.3.1h.3c.3.1.6.1.8.2.2.1.5.1.7.2s.5.2.7.4c.2.2.3.4.4.6.1.3.2.6.2.9 0 .7-.3 1.4-.9 1.8-.7.4-1.6.7-2.4.6z"/><g transform="translate(-205.623 797)"><circle cx="438.5" cy="-362.5" r="6.5"/><circle opacity=".5" cx="438.5" cy="-362.5" r="10.5"/></g></g><g fill="#FFF"><path opacity=".996" d="M590 453.2c.7 0 1.4-.3 1.8-.9.4-.7.7-1.5.6-2.3 0-.8-.2-1.6-.6-2.3-.4-.6-1.1-.9-1.8-.9s-1.4.3-1.8.9c-.5.7-.7 1.5-.6 2.3 0 .8.2 1.6.6 2.3.4.6 1.1 1 1.8.9zm3.6.6c-.9 1-2.2 1.5-3.6 1.5-1.4.1-2.7-.5-3.6-1.5s-1.4-2.4-1.4-3.8c-.1-1.4.4-2.7 1.4-3.8.9-1 2.2-1.5 3.6-1.5 1.4-.1 2.7.5 3.6 1.5s1.4 2.4 1.4 3.8-.5 2.7-1.4 3.8zm2.2 3.6v-9.5h2.2v.9c.5-.7 1.3-1.1 2.2-1.1.9 0 1.7.4 2.2 1.1.6.8.9 1.7.8 2.7.1 1-.3 2-.9 2.8-.6.7-1.4 1.1-2.3 1-.8 0-1.6-.3-2-1v3.1h-2.2zm3.7-3.9c.4 0 .8-.2 1-.5.3-.4.4-.9.4-1.4s-.1-1-.4-1.5c-.2-.4-.6-.6-1.1-.5-.4 0-.9.2-1.1.6-.3.4-.4 1-.4 1.5s.1 1 .4 1.4c.3.2.8.4 1.2.4zm6.9-6.5l.8-2.1h2.6l-1.7 2.1h-1.7zm1.1 8.2c-1 0-2-.3-2.8-1.1-.7-.7-1.1-1.7-1-2.7 0-1 .3-2 1-2.7s1.7-1.1 2.7-1.1c.9 0 1.8.3 2.4.9.9.9 1.4 2.2 1.3 3.5h-5.2c0 .4.2.8.5 1.2.3.3.7.4 1.1.4.5 0 1-.2 1.2-.7h2.2c-.2.7-.6 1.3-1.2 1.7s-1.4.6-2.2.6zm-1.6-4.6h2.8c0-.4-.2-.7-.4-1-.2-.3-.6-.4-.9-.4-.8 0-1.3.5-1.5 1.4zm5.9 4.4v-7.2h2.2v1.1c.4-.7 1.1-1.2 2-1.2.2 0 .3 0 .4.1v2h-.1c-.6-.1-1.2 0-1.7.4-.4.4-.7 1.1-.6 1.7v3.2l-2.2-.1zm7.3.2c-.6 0-1.3-.2-1.8-.6s-.7-1-.7-1.6c-.1-.6.2-1.2.7-1.6.6-.4 1.3-.6 2-.7.5 0 1-.1 1.4-.3.2-.1.4-.3.4-.5 0-.5-.3-.8-1-.8s-1.1.3-1.2.9h-2.1c0-.7.3-1.3.9-1.8.7-.5 1.5-.8 2.4-.7.8-.1 1.6.1 2.3.6.6.5 1 1.3.9 2v3.6c0 .6.1.9.3 1v.1h-2.2c-.1-.2-.2-.5-.2-.8-.5.9-1.3 1.2-2.1 1.2zm.7-1.5c.4 0 .8-.1 1-.4.3-.2.4-.6.4-.9v-.9c-.4.2-.8.3-1.2.4-.3.1-.7.2-1 .4-.2.1-.3.4-.3.6.1.6.5.8 1.1.8z"/><g transform="translate(131.377 821)"><circle cx="438.5" cy="-362.5" r="6.5"/><circle opacity=".5" cx="438.5" cy="-362.5" r="10.5"/></g></g><g fill="#FFF"><path opacity=".996" d="M363 233l-3.3-10h2.6l1.6 5.2.5 1.8c.2-.7.3-1.3.5-1.8l1.6-5.2h2.5l-3.3 10H363zm6.3 0v-7.2h2.3v7.2h-2.3zm0-8.2V223h2.3v1.8h-2.3zm6.9 8.4c-1 0-2-.3-2.8-1.1-.7-.7-1.1-1.7-1-2.7 0-1 .3-2 1-2.7s1.7-1.1 2.7-1.1c.9 0 1.8.3 2.4.9.9.9 1.4 2.2 1.3 3.5h-5.2c0 .4.2.8.5 1.2.3.3.7.4 1.1.4.5 0 1-.2 1.2-.7h2.2c-.2.7-.6 1.3-1.2 1.7-.6.4-1.4.6-2.2.6zm-1.5-4.6h2.8c0-.4-.2-.7-.4-1-.2-.3-.6-.4-.9-.4-.9 0-1.4.5-1.5 1.4zm5.9 4.4v-7.2h2.3v7.2h-2.3zm0-8.2V223h2.3v1.8h-2.3zm3.4 8.2v-10h2.3v10H384zm3.4 0v-10h2.3v10h-2.3zm6.9.2c-1 0-2-.3-2.8-1.1-.7-.7-1.1-1.7-1-2.7 0-1 .3-2 1-2.7s1.7-1.1 2.7-1.1c.9 0 1.8.3 2.4.9.9.9 1.4 2.2 1.3 3.5h-5.2c0 .4.2.8.5 1.2.3.3.7.4 1.1.4.5 0 1-.2 1.2-.7h2.2c-.2.7-.6 1.3-1.2 1.7s-1.4.6-2.2.6zm-1.6-4.6h2.8c0-.4-.2-.7-.4-1-.2-.3-.6-.4-.9-.4-.8 0-1.3.5-1.5 1.4zm12.8 4.6c-1.3 0-2.6-.5-3.6-1.5-.9-1-1.4-2.4-1.4-3.7 0-1.4.4-2.7 1.4-3.8.9-1 2.2-1.5 3.6-1.5 1 0 2 .3 2.9.9.9.7 1.4 1.7 1.5 2.8h-2.5c-.1-.4-.3-.8-.6-1.1-.4-.3-.8-.5-1.3-.4-.7 0-1.4.3-1.8.9-.4.7-.6 1.5-.6 2.3s.2 1.6.7 2.3c.4.6 1.1.9 1.8.9.5 0 1-.1 1.3-.5.3-.3.6-.7.6-1.2h2.5c-.1 1-.5 1.9-1.2 2.6-1 .7-2.1 1.1-3.3 1zm5.1-.2v-10h2.3v3.7c.5-.7 1.3-1.1 2.1-1.1.7 0 1.4.2 1.8.7.5.5.7 1.3.7 2v4.7h-2.3v-4.2c0-.3-.1-.7-.3-.9-.2-.2-.5-.4-.8-.3-.4 0-.7.1-.9.4-.2.3-.4.7-.3 1.1v4l-2.3-.1zm10.1.2c-.6 0-1.3-.2-1.8-.6s-.7-1-.7-1.6c-.1-.6.2-1.2.7-1.6.6-.4 1.3-.6 2-.7.5 0 1-.1 1.4-.3.2-.1.4-.3.4-.5 0-.5-.3-.8-1-.8s-1.1.3-1.2.9h-2.1c0-.7.3-1.3.9-1.8.7-.5 1.5-.8 2.4-.7.8-.1 1.6.1 2.3.6.6.5 1 1.3.9 2v3.6c0 .6.1.9.3 1v.1H423c-.1-.2-.2-.5-.2-.8-.4.9-1.2 1.2-2.1 1.2zm.8-1.5c.4 0 .8-.1 1-.4.3-.2.4-.6.4-.9v-.9c-.4.2-.8.3-1.2.4-.3.1-.7.2-1 .4-.2.1-.3.4-.3.6.1.6.4.8 1.1.8zm4.7 1.3v-7.2h2.2v1.1c.4-.7 1.1-1.2 2-1.2.2 0 .3 0 .4.1v2h-.1c-.6-.1-1.2 0-1.7.4-.4.4-.7 1.1-.6 1.7v3.2l-2.2-.1zm5.4 0v-7.2h2.3v7.2h-2.3zm0-8.2V223h2.3v1.8h-2.3zm6.2 8.3c-.6 0-1.2-.1-1.7-.4-.4-.4-.7-1-.6-1.5v-3.8h-1V226h1v-2.3h2.2v2.3h1.3v1.4h-1.3v3.4c0 .2.1.4.2.5.2.1.4.2.6.2h.5v1.7c-.4-.1-.8-.1-1.2-.1zm4.4-8.1l.8-2.1h2.6l-1.7 2.1h-1.7zm1.1 8.2c-1 0-2-.3-2.8-1.1-.7-.7-1.1-1.7-1-2.7 0-1 .3-2 1-2.7s1.7-1.1 2.7-1.1c.9 0 1.8.3 2.4.9.9.9 1.4 2.2 1.3 3.5h-5.2c0 .4.2.8.5 1.2.3.3.7.4 1.1.4.5 0 1-.2 1.2-.7h2.2c-.2.7-.6 1.3-1.2 1.7s-1.4.6-2.2.6zm-1.6-4.6h2.8c0-.4-.2-.7-.4-1-.2-.3-.6-.4-.9-.4-.8 0-1.3.5-1.5 1.4z"/><g transform="translate(-35.623 566)"><circle cx="438.5" cy="-362.5" r="6.5"/><circle opacity=".5" cx="438.5" cy="-362.5" r="10.5"/></g></g><g fill="#FFF"><path opacity=".996" d="M296.5 490l3.6-10h2.5l3.6 10h-2.6l-.6-1.8h-3.5l-.6 1.8h-2.4zm3.7-3.6h2.4l-.8-2.4-.4-1.4c-.2.6-.3 1.1-.4 1.4l-.8 2.4zm11 3.8c-.9.1-1.7-.4-2.2-1.1v.9h-2.2v-10h2.3v3.7c.5-.7 1.2-1.1 2-1 .9 0 1.7.4 2.2 1.1.6.8.9 1.7.8 2.7.1 1-.2 2-.8 2.8-.4.6-1.2 1-2.1.9zm-.6-1.8c.4 0 .8-.2 1-.5.3-.4.4-1 .4-1.5s-.1-1-.4-1.5c-.2-.4-.6-.6-1-.6s-.9.2-1.1.6c-.3.4-.4 1-.4 1.5s.1 1 .4 1.5c.2.3.6.5 1.1.5zm8.8 1.8c-.9.1-1.7-.4-2.2-1.1v.9H315v-10h2.3v3.7c.5-.7 1.2-1.1 2-1 .9 0 1.7.4 2.2 1.1.6.8.9 1.7.8 2.7.1 1-.2 2-.8 2.8-.4.6-1.2 1-2.1.9zm-.6-1.8c.4 0 .8-.2 1-.5.3-.4.4-1 .4-1.5s-.1-1-.4-1.5c-.2-.4-.6-.6-1.1-.6-.4 0-.9.2-1.1.6-.3.4-.4 1-.4 1.5s.1 1 .4 1.5c.3.3.8.5 1.2.5zm6.6 1.8c-.6 0-1.3-.2-1.8-.6s-.7-1-.7-1.6c-.1-.6.2-1.2.7-1.6.6-.4 1.3-.6 2-.7.5 0 1-.1 1.4-.3.2-.1.4-.3.4-.5 0-.5-.3-.8-1-.8s-1.1.3-1.2.9h-2.1c0-.7.3-1.3.9-1.8.7-.5 1.5-.8 2.4-.7.8-.1 1.6.1 2.3.6.6.5 1 1.3.9 2v3.6c0 .6.1.9.3 1v.1h-2.2c-.1-.2-.2-.5-.2-.8-.5.9-1.3 1.2-2.1 1.2zm.7-1.5c.4 0 .8-.1 1-.4.3-.2.4-.6.4-.9v-.9c-.4.2-.8.3-1.2.4-.3.1-.7.2-1 .4-.2.1-.3.4-.3.6.1.6.4.8 1.1.8zm4.8 3.7v-1.8h.8c.6 0 .9-.3.9-.8-.1-.5-.2-1-.4-1.5l-2.1-5.5h2.4l1 3.1.4 1.7c.1-.6.3-1.1.4-1.7l.9-3.1h2.3l-2.5 7.3c-.2.7-.5 1.3-1 1.8-.5.4-1.1.5-1.7.5h-1.4zm10.4-2.2c-1 0-2-.3-2.8-1.1-.7-.7-1.1-1.7-1-2.7 0-1 .3-2 1-2.7s1.7-1.1 2.7-1.1c.9 0 1.8.3 2.4.9.9.9 1.4 2.2 1.3 3.5h-5.2c0 .4.2.8.5 1.2.3.3.7.4 1.1.4.5 0 1-.2 1.2-.7h2.2c-.2.7-.6 1.3-1.2 1.7s-1.4.6-2.2.6zm-1.6-4.6h2.8c0-.4-.2-.7-.4-1-.2-.3-.6-.4-.9-.4-.8 0-1.3.5-1.5 1.4zm12.3 4.6c-1.1.1-2.3-.2-3.2-.9-.8-.6-1.3-1.5-1.2-2.5h2.5c.1 1 .8 1.4 2 1.4.4 0 .8-.1 1.1-.3.3-.1.5-.5.5-.8 0-.2-.1-.5-.3-.6-.2-.2-.4-.3-.6-.3-.2-.1-.6-.2-1.1-.3h-.2c-.4-.1-.8-.2-1.1-.3-.3-.1-.6-.2-.9-.4-.3-.1-.6-.3-.8-.5-.2-.2-.4-.5-.5-.8s-.2-.7-.2-1.1c-.1-.9.4-1.8 1.1-2.3.9-.5 1.9-.8 2.9-.8s2 .2 2.8.8c.7.5 1.2 1.4 1.2 2.3h-2.4c0-.4-.2-.7-.5-.9-.3-.2-.7-.3-1.1-.3s-.7.1-1 .3c-.2.1-.4.4-.4.7 0 .3.2.6.5.7.6.2 1.2.4 1.8.5.5.1.9.2 1.4.4.4.1.7.3 1.1.5s.6.5.8.9a2.982 2.982 0 01-.9 3.7c-1.3.7-2.3 1-3.3.9zm7 0c-.6 0-1.3-.2-1.8-.6s-.7-1-.7-1.6c-.1-.6.2-1.2.7-1.6.6-.4 1.3-.6 2-.7.5 0 1-.1 1.4-.3.2-.1.4-.3.4-.5 0-.5-.3-.8-1-.8s-1.1.3-1.2.9h-2.1c0-.7.3-1.3.9-1.8.7-.5 1.5-.8 2.4-.7.8-.1 1.6.1 2.3.6.6.5 1 1.3.9 2v3.6c0 .6.1.9.3 1v.1h-2.2c-.1-.2-.2-.5-.2-.8-.4.9-1.2 1.2-2.1 1.2zm.8-1.5c.4 0 .8-.1 1-.4.3-.2.4-.6.4-.9v-.9c-.4.2-.8.3-1.2.4-.3.1-.7.2-1 .4-.2.1-.3.4-.3.6.1.6.4.8 1.1.8zm4.7 1.3v-7.2h2.3v7.2h-2.3zm0-8.2V480h2.3v1.8h-2.3zm3.4 8.2v-7.2h2.2v1c.5-.8 1.3-1.2 2.2-1.2.7 0 1.4.2 1.8.7.5.5.7 1.3.7 2v4.7h-2.3v-4.2c0-.3-.1-.7-.3-.9-.2-.2-.5-.4-.8-.3-.4 0-.7.1-.9.4-.2.3-.4.7-.3 1.1v4l-2.3-.1zm10.7.1c-.6 0-1.2-.1-1.7-.4-.4-.4-.7-1-.6-1.5v-3.8h-1V483h1v-2.3h2.2v2.3h1.3v1.4h-1.3v3.4c0 .2.1.4.2.5.2.1.4.2.6.2h.5v1.7c-.4-.1-.8-.1-1.2-.1zm1.9-2.6v-2h3.8v2h-3.8zm6.6 2.5l-3.3-10h2.6l1.6 5.2.5 1.8c.2-.7.3-1.3.5-1.8l1.6-5.2h2.5l-3.3 10h-2.7zm6.4 0v-7.2h2.3v7.2h-2.3zm0-8.2V480h2.3v1.8h-2.3zm6.8 8.4c-1 0-2-.3-2.8-1.1-.7-.7-1.1-1.7-1-2.7 0-1 .3-2 1-2.7s1.7-1.1 2.7-1.1c.8 0 1.7.2 2.3.8.6.5 1 1.2 1.1 2h-2.2c0-.6-.6-1.1-1.2-1.1-.4 0-.9.2-1.1.6-.3.5-.4 1-.4 1.6 0 .5.1 1.1.4 1.5.2.4.7.6 1.1.6.7 0 1.1-.4 1.2-1.2h2.2c0 .8-.4 1.6-1 2.1-.5.5-1.4.8-2.3.7zm7-.1c-.6 0-1.2-.1-1.7-.4-.4-.4-.7-1-.6-1.5v-3.8h-1V483h1v-2.3h2.2v2.3h1.3v1.4h-1.3v3.4c0 .2.1.4.2.5.2.1.4.2.6.2h.5v1.7c-.4-.1-.8-.1-1.2-.1zm4.4-2.1c.2.4.7.6 1.1.6.5 0 .9-.2 1.1-.6.3-.5.4-1 .4-1.6s-.1-1.1-.4-1.6c-.2-.4-.7-.6-1.1-.6-.5 0-.9.2-1.1.6-.3.5-.4 1-.4 1.6-.1.6.1 1.1.4 1.6zm3.9 1.1c-.7.7-1.7 1.1-2.8 1.1-1 0-2-.3-2.8-1.1-.7-.7-1.1-1.7-1.1-2.7s.4-2 1.1-2.7 1.7-1.1 2.8-1.1c1 0 2 .3 2.8 1.1.7.7 1.1 1.7 1.1 2.7s-.4 2-1.1 2.7zm1.8.9v-7.2h2.2v1.1c.4-.7 1.1-1.2 2-1.2.2 0 .3 0 .4.1v2h-.1c-.6-.1-1.2 0-1.7.4-.4.4-.7 1.1-.6 1.7v3.2l-2.2-.1z"/><g transform="translate(-156.623 844)"><circle cx="438.5" cy="-362.5" r="6.5"/><circle opacity=".5" cx="438.5" cy="-362.5" r="10.5"/></g></g><g fill="#FFF"><path opacity=".996" d="M597.5 489v-10h3.3l1.2 4.4.6 2.3c.3-1.1.4-1.9.6-2.3l1.2-4.4h3.4v10h-2.3v-7c-.2 1-.4 1.6-.5 1.9l-1.4 5.2h-2l-1.4-5.2-.5-1.9v7h-2.2zm14 .2c-.7 0-1.4-.2-1.9-.7s-.7-1.2-.7-2v-4.7h2.3v4.2c0 .8.4 1.2 1.1 1.2.4 0 .7-.1.9-.4.2-.3.4-.7.3-1v-4h2.3v7.2h-2.2v-.9c-.5.7-1.3 1.1-2.1 1.1zm8.5 0c-.9 0-1.8-.2-2.5-.7-.6-.4-1-1.1-1-1.9h2.2c0 .6.6 1.1 1.2 1.1h.1c.3 0 .6-.1.8-.2.2-.1.3-.3.3-.5v-.2c0-.1-.1-.1-.1-.2l-.1-.1c-.1 0-.1-.1-.2-.1s-.2-.1-.2-.1-.1 0-.3-.1l-.3-.1c-.1 0-.2 0-.3-.1s-.2 0-.3 0c-.3 0-.6-.1-.8-.1-.2-.1-.5-.1-.7-.2s-.4-.2-.6-.4c-.2-.2-.3-.4-.4-.6-.1-.3-.2-.6-.2-.9 0-.7.3-1.3.9-1.7.7-.4 1.4-.6 2.2-.6.8 0 1.6.2 2.3.6.5.4.9 1 .9 1.7h-2.1c-.1-.6-.5-.8-1.1-.8-.3 0-.5 0-.7.2-.2.1-.3.3-.3.5v.2l.1.1.1.1c.1 0 .1.1.2.1s.1.1.2.1.2 0 .3.1h.3l.3.1h.3c.3.1.6.1.8.2.2.1.5.1.7.2s.5.2.7.4c.2.2.3.4.4.6.1.3.2.6.2.9 0 .7-.3 1.4-.9 1.8-.7.4-1.6.7-2.4.6zm6.5-8.2l.8-2.1h2.6l-1.7 2.1h-1.7zm1.1 8.2c-1 0-2-.3-2.8-1.1-.7-.7-1.1-1.7-1-2.7 0-1 .3-2 1-2.7s1.7-1.1 2.7-1.1c.9 0 1.8.3 2.5.9.9.9 1.4 2.2 1.3 3.5h-5.2c0 .4.2.8.5 1.2.3.3.7.4 1.1.4.5 0 1-.2 1.2-.7h2.2c-.2.7-.6 1.3-1.2 1.7-.7.4-1.5.6-2.3.6zm-1.6-4.6h2.8c0-.4-.2-.7-.4-1-.2-.3-.6-.4-.9-.4-.8 0-1.3.5-1.5 1.4zm9.4 4.6c-1 0-2-.3-2.8-1.1-.7-.7-1.1-1.7-1-2.7 0-1 .3-2 1-2.7s1.7-1.1 2.7-1.1c.9 0 1.8.3 2.4.9.9.9 1.4 2.2 1.3 3.5h-5.2c0 .4.2.8.5 1.2.3.3.7.4 1.1.4.5 0 1-.2 1.2-.7h2.2c-.2.7-.6 1.3-1.2 1.7s-1.4.6-2.2.6zm-1.6-4.6h2.8c0-.4-.2-.7-.4-1-.2-.3-.6-.4-.9-.4-.8 0-1.3.5-1.5 1.4zm-32.1 19.6c-1.3 0-2.6-.5-3.6-1.5-.9-1-1.4-2.4-1.4-3.7 0-1.4.4-2.7 1.4-3.8.9-1 2.2-1.5 3.6-1.5 1 0 2 .3 2.9.9.9.7 1.4 1.7 1.5 2.8h-2.5c-.1-.4-.3-.8-.6-1.1-.4-.3-.8-.5-1.3-.4-.7 0-1.4.3-1.8.9-.4.7-.6 1.5-.6 2.3s.2 1.6.7 2.3c.4.6 1.1.9 1.8.9.5 0 1-.1 1.3-.5.3-.3.6-.7.6-1.2h2.5c-.1 1-.5 1.9-1.2 2.6-.9.7-2.1 1.1-3.3 1zm7.3 0c-.6 0-1.3-.2-1.8-.6s-.7-1-.7-1.6c-.1-.6.2-1.2.7-1.6.6-.4 1.3-.6 2-.7.5 0 1-.1 1.4-.3.2-.1.4-.3.4-.5 0-.5-.3-.8-1-.8s-1.1.3-1.2.9h-2.1c0-.7.3-1.3.9-1.8.7-.5 1.5-.8 2.4-.7.8-.1 1.6.1 2.3.6.6.5 1 1.3.9 2v3.6c0 .6.1.9.3 1v.1h-2.2c-.1-.2-.2-.5-.2-.8-.5.9-1.3 1.2-2.1 1.2zm.7-1.5c.4 0 .8-.1 1-.4.3-.2.4-.6.4-.9v-.9c-.4.2-.8.3-1.2.4-.3.1-.7.2-1 .4-.2.1-.3.4-.3.6.1.6.5.8 1.1.8zm4.7 1.3v-7.2h2.2v1c.5-.8 1.3-1.2 2.2-1.2.7 0 1.4.2 1.8.7.5.5.7 1.3.7 2v4.7H619v-4.2c0-.3-.1-.7-.3-.9-.2-.2-.5-.4-.8-.3-.4 0-.7.1-.9.4-.2.3-.4.7-.3 1.1v4l-2.3-.1zm10.7.1c-.6 0-1.2-.1-1.7-.4-.4-.4-.7-1-.6-1.5v-3.8h-1V497h1v-2.3h2.2v2.3h1.3v1.4H625v3.4c0 .2.1.4.2.5.2.1.4.2.6.2h.5v1.7c-.3-.1-.8-.1-1.2-.1zm2.1-.1v-7.2h2.3v7.2h-2.3zm0-8.2V494h2.3v1.8h-2.3zm3.4 8.2v-7.2h2.2v1c.5-.8 1.3-1.2 2.2-1.2.7 0 1.4.2 1.8.7.5.5.7 1.3.7 2v4.7h-2.3v-4.2c0-.3-.1-.7-.3-.9-.2-.2-.5-.4-.8-.3-.4 0-.7.1-.9.4-.2.3-.4.7-.3 1.1v4l-2.3-.1zm7.9 0v-7.2h2.3v7.2h-2.3zm0-8.2V494h2.3v1.8h-2.3z"/><g transform="translate(219.377 854)"><circle cx="438.5" cy="-362.5" r="6.5"/><circle opacity=".5" cx="438.5" cy="-362.5" r="10.5"/></g></g><g fill="#FFF"><path opacity=".996" d="M441.9 303.7v-10h2.5v3.8h3.5v-3.8h2.5v10h-2.5v-4.2h-3.5v4.2h-2.5zm10.6-8l1.5-1.9h2.2l1.5 1.9h-1.9l-.6-.9-.6.9h-2.1zm1.5 6c.2.4.7.6 1.1.6.5 0 .9-.2 1.1-.6.3-.5.4-1 .4-1.6s-.1-1.1-.4-1.6c-.2-.4-.7-.6-1.1-.6-.5 0-.9.2-1.1.6-.3.5-.4 1-.4 1.6s.1 1.1.4 1.6zm3.9 1.1c-.7.7-1.7 1.1-2.8 1.1-1 0-2-.3-2.8-1.1-.7-.7-1.1-1.7-1.1-2.7s.4-2 1.1-2.7 1.7-1.1 2.8-1.1c1 0 2 .3 2.8 1.1.7.7 1.1 1.7 1.1 2.7 0 1-.4 2-1.1 2.7zm4.5 1c-.6 0-1.2-.1-1.7-.4-.4-.4-.7-1-.6-1.5v-3.8h-1v-1.4h1v-2.3h2.2v2.3h1.3v1.4h-1.3v3.4c0 .2.1.4.2.5.2.1.4.2.6.2h.5v1.7c-.4-.1-.8-.1-1.2-.1zm5.5.1c-1 0-2-.3-2.8-1.1-.7-.7-1.1-1.7-1-2.7 0-1 .3-2 1-2.7s1.7-1.1 2.7-1.1c.9 0 1.8.3 2.4.9.9.9 1.4 2.2 1.3 3.5h-5.2c0 .4.2.8.5 1.2.3.3.7.4 1.1.4.5 0 1-.2 1.2-.7h2.2c-.2.7-.6 1.3-1.2 1.7-.6.4-1.4.6-2.2.6zm-1.6-4.6h2.8c0-.4-.2-.7-.4-1-.2-.3-.6-.4-.9-.4-.8 0-1.3.5-1.5 1.4zm6 4.4v-10h2.3v10h-2.3zm8.4.2c-.9 0-1.7-.4-2.3-1-.6-.8-.9-1.8-.9-2.8s.3-2 .9-2.7c.5-.7 1.4-1.1 2.3-1.1.8 0 1.6.4 2 1v-3.7h2.3v10h-2.2v-1c-.4.9-1.3 1.4-2.1 1.3zm.5-1.8c.4 0 .9-.2 1.1-.6.3-.4.4-.9.4-1.4s-.1-1.1-.4-1.5c-.2-.4-.7-.6-1.1-.6s-.8.2-1.1.6c-.3.4-.4 1-.4 1.5s.1 1 .4 1.5c.3.3.7.5 1.1.5zm8.4 1.8c-1 0-2-.3-2.8-1.1-.7-.7-1.1-1.7-1-2.7 0-1 .3-2 1-2.7s1.7-1.1 2.7-1.1c.9 0 1.8.3 2.4.9.9.9 1.4 2.2 1.3 3.5H488c0 .4.2.8.5 1.2.3.3.7.4 1.1.4.5 0 1-.2 1.2-.7h2.2c-.2.7-.6 1.3-1.2 1.7s-1.4.6-2.2.6zm-1.6-4.6h2.8c0-.4-.2-.7-.4-1-.2-.3-.6-.4-.9-.4-.8 0-1.3.5-1.5 1.4zm10 4.4l-2.5-7.2h2.4l1 3.2.4 1.4c.1-.5.3-1 .4-1.4l1-3.2h2.3l-2.5 7.2H498zm5.4 0v-7.2h2.3v7.2h-2.3zm0-8.2v-1.8h2.3v1.8h-2.3zm3.4 8.2v-10h2.3v10h-2.3zm3.4 0v-10h2.3v10h-2.3zm7 .2c-1 0-2-.3-2.8-1.1-.7-.7-1.1-1.7-1-2.7 0-1 .3-2 1-2.7s1.7-1.1 2.7-1.1c.9 0 1.8.3 2.4.9.9.9 1.4 2.2 1.3 3.5h-5.1c0 .4.2.8.5 1.2.3.3.7.4 1.1.4.5 0 1-.2 1.2-.7h2.2c-.2.7-.6 1.3-1.2 1.7-.8.4-1.5.6-2.3.6zm-1.6-4.6h2.8c0-.4-.2-.7-.4-1-.2-.3-.6-.4-.9-.4-.9 0-1.3.5-1.5 1.4z"/><g transform="translate(5.377 681)"><circle cx="438.5" cy="-362.5" r="6.5"/><circle opacity=".5" cx="438.5" cy="-362.5" r="10.5"/></g></g><g fill="#FFF"><path opacity=".996" d="M640.1 298v-10h3.3l1.2 4.4.6 2.3c.3-1.1.4-1.9.6-2.3l1.2-4.4h3.4v10h-2.3v-7c-.2 1-.4 1.6-.5 1.9l-1.4 5.2h-2l-1.4-5.2-.5-1.9v7h-2.2zm14 .2c-.7 0-1.4-.2-1.9-.7s-.7-1.2-.7-2v-4.7h2.3v4.2c0 .8.4 1.2 1.1 1.2.4 0 .7-.1.9-.4.2-.3.4-.7.3-1v-4h2.3v7.2h-2.2v-.9c-.5.7-1.3 1.1-2.1 1.1zm8.5 0c-.9 0-1.8-.2-2.5-.7-.6-.4-1-1.1-1-1.9h2.2c0 .6.6 1.1 1.2 1.1h.1c.3 0 .6-.1.8-.2.2-.1.3-.3.3-.5v-.2c0-.1-.1-.1-.1-.2l-.1-.1c-.1 0-.1-.1-.2-.1s-.2-.1-.2-.1-.1 0-.3-.1l-.3-.1c-.1 0-.2 0-.3-.1s-.2 0-.3 0c-.3 0-.6-.1-.8-.1-.2-.1-.5-.1-.7-.2s-.4-.2-.6-.4c-.2-.2-.3-.4-.4-.6-.1-.3-.2-.6-.2-.9 0-.7.3-1.3.9-1.7.7-.4 1.4-.6 2.2-.6.8 0 1.6.2 2.3.6.5.4.9 1 .9 1.7h-2.1c-.1-.6-.5-.8-1.1-.8-.3 0-.5 0-.7.2-.2.1-.3.3-.3.5v.2l.1.1.1.1c.1 0 .1.1.2.1s.1.1.2.1.2 0 .3.1h.3l.3.1h.3c.3.1.6.1.8.2.2.1.5.1.7.2s.5.2.7.4c.2.2.3.4.4.6.1.3.2.6.2.9 0 .7-.3 1.4-.9 1.8-.8.4-1.6.7-2.4.6zm6.5-8.2l.8-2.1h2.6l-1.7 2.1h-1.7zm1 8.2c-1 0-2-.3-2.8-1.1-.7-.7-1.1-1.7-1-2.7 0-1 .3-2 1-2.7s1.7-1.1 2.7-1.1c.9 0 1.8.3 2.5.9.9.9 1.4 2.2 1.3 3.5h-5.2c0 .4.2.8.5 1.2.3.3.7.4 1.1.4.5 0 1-.2 1.2-.7h2.2c-.2.7-.6 1.3-1.2 1.7-.7.4-1.5.6-2.3.6zm-1.5-4.6h2.8c0-.4-.2-.7-.4-1-.2-.3-.6-.4-.9-.4-.9 0-1.4.5-1.5 1.4zm9.4 4.6c-1 0-2-.3-2.8-1.1-.7-.7-1.1-1.7-1-2.7 0-1 .3-2 1-2.7s1.7-1.1 2.7-1.1c.9 0 1.8.3 2.4.9.9.9 1.4 2.2 1.3 3.5h-5.2c0 .4.2.8.5 1.2.3.3.7.4 1.1.4.5 0 1-.2 1.2-.7h2.2c-.2.7-.6 1.3-1.2 1.7s-1.4.6-2.2.6zm-1.6-4.6h2.8c0-.4-.2-.7-.4-1-.2-.3-.6-.4-.9-.4-.8 0-1.3.5-1.5 1.4zm-33.7 19.6c-.9 0-1.7-.4-2.3-1-.6-.8-.9-1.8-.9-2.8s.3-2 .9-2.7c.5-.7 1.4-1.1 2.3-1.1.8 0 1.6.4 2 1v-3.7h2.3v10h-2.2v-1c-.4.9-1.2 1.4-2.1 1.3zm.6-1.8c.4 0 .9-.2 1.1-.6.3-.4.4-.9.4-1.4s-.1-1.1-.4-1.5c-.2-.4-.7-.6-1.1-.6s-.8.2-1.1.6c-.3.4-.4 1-.4 1.5s.1 1 .4 1.5c.3.3.7.5 1.1.5zm4.8-4.3v-.8c.3-.1.5-.2.7-.5.2-.2.3-.5.3-.8h-1v-2.1h2.1v1.8c0 .6-.2 1.2-.6 1.6-.4.6-1 .8-1.5.8zm3.2 5.9v-10h2.5v3.8h3.5V303h2.5v10h-2.5v-4.2h-3.5v4.2h-2.5zm9.7 0v-7.2h2.3v7.2H661zm0-8.2V303h2.3v1.8H661zm6.5 8.4c-.9 0-1.8-.2-2.5-.7-.6-.4-1-1.1-1-1.9h2.2c0 .6.6 1.1 1.2 1.1h.1c.3 0 .6-.1.8-.2.2-.1.3-.3.3-.5v-.2c0-.1-.1-.1-.1-.2l-.1-.1c-.1 0-.1-.1-.2-.1s-.2-.1-.2-.1-.1 0-.3-.1l-.3-.1c-.1 0-.2 0-.3-.1s-.2 0-.3 0c-.3 0-.6-.1-.8-.1-.2-.1-.5-.1-.7-.2s-.4-.2-.6-.4c-.2-.2-.3-.4-.4-.6-.1-.3-.2-.6-.2-.9 0-.7.3-1.3.9-1.7.7-.4 1.4-.6 2.2-.6.8 0 1.6.2 2.3.6.5.4.9 1 .9 1.7h-2.1c-.1-.6-.5-.8-1.1-.8-.3 0-.5 0-.7.2-.2.1-.3.3-.3.5v.2l.1.1.1.1c.1 0 .1.1.2.1s.1.1.2.1.2 0 .3.1h.3l.3.1h.3c.3.1.6.1.8.2.2.1.5.1.7.2s.5.2.7.4c.2.2.3.4.4.6.1.3.2.6.2.9 0 .7-.3 1.4-.9 1.8-.8.4-1.6.7-2.4.6zm6.6-.1c-.6 0-1.2-.1-1.7-.4-.4-.4-.7-1-.6-1.5v-3.8h-.9V306h1v-2.3h2.2v2.3h1.3v1.4h-1.3v3.4c0 .2.1.4.2.5.2.1.4.2.6.2h.5v1.7c-.5-.1-.9-.1-1.3-.1zm4.4-2.1c.2.4.7.6 1.1.6.5 0 .9-.2 1.1-.6.3-.5.4-1 .4-1.6s-.1-1.1-.4-1.6c-.2-.4-.7-.6-1.1-.6-.5 0-.9.2-1.1.6-.3.5-.4 1-.4 1.6s.1 1.1.4 1.6zm3.9 1.1c-1.5 1.5-3.9 1.6-5.4.1-.8-.7-1.2-1.8-1.2-2.8 0-2.1 1.6-3.9 3.7-3.9s3.9 1.6 3.9 3.7v.2c.1 1-.3 2-1 2.7zm1.8.9v-7.2h2.3v7.2h-2.3zm0-8.2V303h2.3v1.8h-2.3zm3.4 8.2v-7.2h2.2v1.1c.4-.7 1.1-1.2 2-1.2.2 0 .3 0 .4.1v2h-.1c-.6-.1-1.2 0-1.7.4-.4.4-.7 1.1-.6 1.7v3.2l-2.2-.1zm8.7.2c-1 0-2-.3-2.8-1.1-.7-.7-1.1-1.7-1-2.7 0-1 .3-2 1-2.7 1.4-1.4 3.6-1.4 5.1-.2.9.9 1.4 2.2 1.3 3.5h-5.2c0 .4.2.8.5 1.2.3.3.7.4 1.1.4.5 0 1-.2 1.2-.7h2.2c-.2.7-.6 1.3-1.2 1.7s-1.4.6-2.2.6zm-1.6-4.6h2.8c0-.4-.2-.7-.4-1-.2-.3-.6-.4-.9-.4-.8 0-1.3.5-1.5 1.4z"/><g transform="translate(182.377 660)"><circle cx="438.5" cy="-362.5" r="6.5"/><circle opacity=".5" cx="438.5" cy="-362.5" r="10.5"/></g></g><g fill="none" stroke="#FFF"><path d="M61.554 133.761l34.259 21.412m-6.423-27.835l-21.413 34.259"/><path d="M67.737 147l21.924-5.059m-13.551-8.47l5.059 21.924" stroke-width=".4"/></g><path fill="#FFF" d="M99.869 164.503l.031-9.296h6.604l-.053 1.028-5.438.021.085 2.883 4.94.022v.943l-4.94-.021-.042 3.275 5.522.032.032 1.081-6.741.032zm-41.722-32.68c-.806.912-2.067 1.42-3.318 1.346-1.219.064-2.427-.455-3.286-1.346-.805-.975-1.314-2.236-1.24-3.487-.01-1.304.424-2.565 1.23-3.477.805-.912 2.067-1.42 3.317-1.346 1.22-.064 2.428.456 3.286 1.346.806.975 1.315 2.237 1.24 3.487.011 1.304-.423 2.566-1.229 3.477zm-5.82-.689c.605.732 1.559 1.092 2.502 1.092.944 0 1.876-.36 2.438-1.07.615-.796.975-1.75.89-2.746.054-1.028-.307-1.961-.858-2.777-.604-.732-1.558-1.092-2.502-1.092s-1.876.36-2.438 1.07c-.614.796-.975 1.75-.89 2.746-.053 1.028.17 1.993.859 2.777zm39.729-7.717l.053-8.575 1.166.021 3.922 5.99.615 1.091.043-7.049 1.028.053-.053 8.575-1.081.032-3.922-5.989-.615-1.092-.043 7.05-1.113-.107zm-28.121 50.467c-.997.085-2.089-.244-2.83-.943-.658-.647-1.071-1.495-1.071-2.438l1.166.02c.159 1.633 1.123 2.354 2.872 2.386.583.01 1.135-.117 1.57-.435.434-.318.614-.795.572-1.293a1.205 1.205 0 00-.16-.689c-.116-.19-.148-.329-.317-.435l-.594-.37c-.254-.16-.477-.18-.784-.255-.223-.021-.53-.095-.923-.223s-.837-.17-1.23-.296c-.307-.075-.646-.287-.9-.446a1.93 1.93 0 01-.69-.784 3.044 3.044 0 01-.254-1.102c-.02-.721.265-1.368.89-1.802.68-.52 1.506-.71 2.312-.679 2.109.021 3.275.986 3.498 2.894l-1.082.032c.011-.583-.254-1.103-.71-1.505s-1.07-.552-1.706-.477c-.583-.011-1.05.17-1.516.35-.382.233-.562.71-.551 1.07a.78.78 0 00.127.551c.032.138.201.244.318.435l.509.318c.17.106.477.18.7.201.222.021.53.096.837.17.445.042.837.17 1.06.19.307.075.614.149.954.361.307.074.561.233.763.477.201.244.403.488.466.763.149.329.16.69.17 1.05.021.72-.371 1.537-.912 2.024-.784.69-1.664.965-2.554.88zM39.7 62.4c-2.4.1-4.7-.9-6.4-2.6a9.19 9.19 0 01-2.5-6.7c-.1-2.5.8-4.9 2.4-6.7 1.6-1.8 4-2.7 6.4-2.6 1.8-.1 3.6.5 5.1 1.6 1.6 1.2 2.5 3 2.7 4.9H43c-.1-.8-.5-1.5-1.1-2-.6-.5-1.5-.8-2.3-.8-1.3-.1-2.5.5-3.2 1.6-.8 1.2-1.2 2.7-1.1 4.1-.1 1.5.3 2.9 1.2 4.1.7 1 1.9 1.6 3.1 1.6.9 0 1.7-.3 2.4-.8.6-.6 1-1.3 1.1-2.2h4.4c-.1 1.7-.9 3.4-2.2 4.6-1.4 1.3-3.5 2-5.6 1.9zm9.5-.4V44.1h13.6v3.7h-9.1V51h7.8v3.5h-7.8v3.8H63V62H49.2zm15.7 0V44.1h4.5l5.3 9 1.2 2.3V44.1h4.3V62h-4.4l-5.2-8.8-1.3-2.4h-.1c0 1.5.1 2.5.1 2.9V62h-4.4zM87 62V47.9h-5.2v-3.8h14.9v3.8h-5.2V62H87zm11.3 0V44.1h8.6c1.6-.1 3.2.4 4.5 1.4 1.2.9 1.8 2.3 1.8 3.8.1 2-1.2 3.8-3.1 4.3v.1c1.5.5 2.5 1.8 2.6 3.3.1.7.2 1.4.2 2.2 0 .9.1 1.5.2 1.9.1.4.2.7.4.7v.2h-4.3c-.1-.1-.2-.3-.3-.7-.1-.6-.2-1.1-.2-1.7 0-.7-.1-1.3-.2-1.7-.1-1.5-1.3-2.6-2.8-2.6h-2.9V62h-4.5zm4.5-10h3.3c.7 0 1.4-.2 2-.6.5-.4.7-1 .7-1.6 0-.6-.2-1.2-.7-1.6-.5-.4-1.2-.7-1.9-.6h-3.4V52zm12.3 10V44.1h13.6v3.7h-9.1V51h7.8v3.5h-7.8v3.8h9.3V62h-13.8zm24.2 0l-5.9-17.9h4.6l2.8 9.4.8 3.2h.1c.3-1.2.6-2.3.8-3.2l2.8-9.4h4.5L143.9 62h-4.6zm11.7 0V44.1h4.4V62H151zm6.9 0V44.1h4.4v14.1h8V62h-12.4zm14.1 0V44.1h4.4v14.1h8V62H172zm14.1 0V44.1h13.6v3.7h-9.1V51h7.8v3.5h-7.8v3.8h9.3V62h-13.8zM36.2 92l-5.9-17.9h4.6l2.8 9.4.8 3.2c.3-1.2.6-2.3.8-3.2l2.8-9.4h4.5L40.8 92h-4.6zm11.7 0V74.1h4.4V92h-4.4zm6.9 0V74.1h13.6v3.7h-9.1V81H67v3.5h-7.8v3.8h9.3V92H54.8zm23.1.3c-2 .1-4-.5-5.6-1.7-1.3-1.3-2-3.1-1.9-4.9V74.1h4.4v11.7c0 2 1 2.9 3.1 2.9.8.1 1.6-.2 2.2-.8.5-.6.8-1.4.8-2.2V74.1h4.4v11.6c.1 1.8-.6 3.6-1.9 4.9-1.6 1.2-3.5 1.9-5.5 1.7zm8.3-.3l5.9-9.4-5.4-8.5h5.1l3 5.2h.1l3.1-5.2h4.8l-5.3 8.4 5.9 9.4h-5.2l-3.3-6.1h-.1L91.3 92h-5.1zm16.6-6.1V82h7.3v3.9h-7.3zM112 92V74.1h8.1c1.8-.1 3.5.5 4.9 1.7 1.2 1.1 1.9 2.7 1.8 4.4.1 1.6-.5 3.1-1.7 4.2s-2.8 1.7-4.4 1.6h-4.2v6H112zm4.5-9.5h3.3c.7 0 1.3-.2 1.8-.7s.7-1.1.7-1.7-.2-1.2-.7-1.7c-.5-.4-1.2-.7-1.8-.6h-3.3v4.7zm20.1 6.3c1.3.1 2.5-.5 3.2-1.6.8-1.2 1.2-2.7 1.1-4.1.1-1.5-.3-2.9-1.1-4.1-.7-1.1-1.9-1.7-3.2-1.6-1.3-.1-2.5.5-3.2 1.6-.8 1.2-1.2 2.7-1.1 4.2-.1 1.5.3 2.9 1.1 4.1.7 1 2 1.6 3.2 1.5zm6.4 1c-3.6 3.5-9.3 3.5-12.8 0-1.6-1.8-2.5-4.2-2.4-6.7-.1-2.5.8-4.9 2.4-6.7 3.6-3.5 9.3-3.5 12.8 0 1.6 1.8 2.5 4.2 2.4 6.7.1 2.5-.7 4.9-2.4 6.7zm4.2 2.2V74.1h8.6c1.6-.1 3.2.4 4.5 1.4 1.2.9 1.8 2.3 1.8 3.8.1 2-1.2 3.8-3.1 4.3v.1c1.5.5 2.5 1.8 2.6 3.3.1.7.2 1.4.2 2.2 0 .9.1 1.5.2 1.9.1.4.2.7.4.7v.2h-4.3c-.1-.1-.2-.3-.3-.7-.1-.6-.2-1.1-.2-1.7-.1-.7-.1-1.3-.2-1.7-.1-1.5-1.3-2.6-2.8-2.6h-2.9V92h-4.5zm4.4-10h3.3c.7 0 1.4-.2 2-.6.5-.4.7-1 .7-1.6 0-.6-.2-1.2-.6-1.6-.5-.4-1.2-.7-1.9-.6h-3.4l-.1 4.4zm16.6 10V77.9H163v-3.8h14.9v3.8h-5.2V92h-4.5z"/><g transform="translate(1574.235 1459.937)"><ellipse fill="#065295" cx="-965.2" cy="-1088.2" rx="10.6" ry="14.4"/><path fill="#FFF" d="M-966-1107c-9.9 0-18 8.1-18 18s8.1 18 18 18c10 0 18-8.1 18-18 .1-9.9-8-18-18-18zm1.2 28.7c-.9.1-2.6.5-3.4.6-.7 0-1.4-.3-1.8-1-.4-.6-.5-1.4-.3-2.1l3.4-9.4h-3.5c.1-1.9 1.5-3.5 3.3-3.9 1.1-.3 2.3-.5 3.4-.6.7.1 1.4.4 1.8 1 .4.6.5 1.4.3 2.1l-3.4 9.4h3.5c0 1.9-1.4 3.6-3.3 3.9zm1.1-17.4c-1.2 0-2.3-1-2.3-2.3s1-2.3 2.3-2.3 2.3 1 2.3 2.3c-.1 1.3-1.1 2.3-2.3 2.3z"/></g><path fill="none" stroke="#FFF" stroke-width="10" stroke-linecap="round" stroke-linejoin="round" d="M5 5h967v673H5z"/></svg>